<?xml version="1.0" encoding="UTF-8" standalone="no"?>
<svg
   viewBox="0 0 900 900"
   version="1.1"
   id="svg1"
   width="900"
   height="900"
   xmlns="http://www.w3.org/2000/svg"
   xmlns:svg="http://www.w3.org/2000/svg">
  <defs
     id="defs1" />
  <g
     id="layer1"
     transform="translate(-166.80716,-91.618676)">
    <path
       style="opacity:1;fill:#ffffff;fill-opacity:1;stroke-width:0.499764;stroke-linejoin:round;paint-order:stroke fill markers"
       id="path132"
       d="m 167.7835,120.22966 c 0.52759,-1.53069 0.78956,-3.13054 0.95893,-4.73699 0.11592,-1.40236 0.0599,-2.81099 0.0395,-4.21597 0.006,-1.79484 -0.1925,-3.58047 -0.3104,-5.36913 -0.10062,-1.73022 -0.0796,-3.46428 -0.0703,-5.19653 0.0181,-1.539441 0.0347,-3.076139 -0.0663,-4.612705 -0.0534,-1.050893 -0.1084,-2.106085 -0.30404,-3.141389 -0.0594,-0.186598 0.0121,-0.164113 0.0348,-0.184213 0.10659,-0.01193 0.18694,-0.02842 0.29281,-0.04575 0.9631,-0.130122 1.93853,-0.101044 2.90767,-0.09876 1.62922,0.0073 3.25847,0.01208 4.88769,0.0132 1.55452,0.06065 3.10724,0.138899 4.65788,0.26284 1.18851,0.04277 2.37161,0.193686 3.56058,0.22734 0.60802,0.01722 1.12021,-0.0075 1.72654,-0.02641 1.5384,-0.09577 3.08393,-0.04591 4.62115,-0.151028 0.79242,-0.08448 1.16486,-0.0086 1.96149,-0.0152 0.72197,-7.98e-4 1.06659,0.04198 1.78854,0.04582 0.45383,-0.01874 0.63889,0.177247 0.78423,0.252084 0.3529,0.360147 0.17477,0.976954 0.21477,1.201819 0.15861,1.383291 0.0144,2.396705 -0.007,3.786301 -0.0226,1.011701 0.11428,1.861731 0.11428,2.873621 -0.0527,1.41625 0.3189,2.57073 0.22187,3.98379 -0.0995,1.39439 -0.0301,3.39439 -0.0912,4.78947 -0.0465,1.366 -0.0189,2.46283 -0.13436,3.82411 -0.0308,0.80152 -0.0289,1.61009 -0.12414,2.40617 -0.0668,0.60899 0.21496,1.60783 0.22093,2.21963 0.0251,0.46781 0.0302,0.63993 0.057,0.94201 -0.005,0.11952 -0.0493,0.45891 -0.15009,0.56063 -0.0164,0.0166 -0.1109,0.1421 -0.13395,0.13875 -0.84266,0.43825 -1.34175,0.29661 -2.26671,0.41607 -2.09194,0.18064 -3.76977,0.15753 -5.86862,0.21216 -2.21252,0.0236 -4.42661,0.0456 -6.63831,-0.0273 -1.76947,-0.0656 -3.53707,-0.12356 -5.30117,-0.28057 -1.30526,-0.0958 -2.61624,-0.0618 -3.92388,-0.0567 -0.76085,0.003 -1.52172,0.006 -2.28257,0.008 -0.32335,7.9e-4 -0.59642,0.004 -0.90731,-0.0671 -0.25652,-0.0602 -0.38128,-0.78137 -1.01364,-0.49211 -0.70125,-0.0466 -0.47486,1.33232 0.22639,1.37894 v 0 c 0.19791,0.012 0.3941,0.0309 0.58315,0.097 1.1139,0.22502 2.27198,0.008 3.3978,0.0801 1.27731,-0.005 2.55788,-0.0386 3.83295,0.0529 1.7824,0.15854 3.56831,0.21802 5.35612,0.28391 2.23099,0.0726 4.46427,0.052 6.69608,0.0274 2.13234,-0.0557 3.84381,-0.0338 5.96894,-0.21992 1.11244,-0.14383 1.90655,-0.0359 2.87845,-0.65855 0.0899,-0.0916 0.19614,-0.1692 0.26971,-0.27458 0.24989,-0.35796 0.22832,-0.72813 0.19812,-1.11255 -0.0131,-0.17771 0.0108,-0.411 -0.002,-0.53473 -0.0197,-0.18656 -0.0133,-0.36244 -0.0304,-0.5493 -0.006,-0.56826 -0.24073,-1.45809 -0.17946,-2.02386 0.0965,-0.80759 0.0976,-1.62802 0.12769,-2.44102 0.11647,-1.37531 0.0898,-2.48625 0.13706,-3.86632 0.0584,-1.38662 -0.005,-3.37762 0.0897,-4.76355 0.0983,-1.4362 -0.2693,-2.61372 -0.21949,-4.05332 -1e-5,-1.00668 -0.13695,-1.851487 -0.11438,-2.857974 0.0223,-1.456761 0.16853,-2.538286 -0.0103,-3.987381 -0.15545,-0.810365 0.1643,-1.736854 -0.43536,-2.171673 -0.0778,-0.05638 -0.23629,-0.143945 -0.33157,-0.152311 -0.0996,-0.01048 -0.0743,-0.04875 -0.33106,-0.0018 -0.10031,0.01836 -0.20786,0.0085 -0.30939,0.018 -0.0617,0.0057 -0.12401,-5.3e-4 -0.18599,-5.3e-4 -0.72651,-0.004 -1.45302,-0.01193 -2.17956,-0.01113 -0.8166,0.0073 -1.20917,-0.06967 -2.0214,0.01754 -1.52427,0.108502 -3.05815,0.04967 -4.58367,0.149137 -0.54626,0.01732 -1.09427,0.0428 -1.64106,0.02744 -1.18106,-0.03317 -2.35629,-0.183627 -3.53691,-0.225737 -1.57644,-0.125989 -3.15504,-0.2058 -4.73545,-0.265965 -1.62872,-0.0011 -3.25742,-0.006 -4.88611,-0.01319 -1.02324,-0.0024 -2.05304,-0.03109 -3.06935,0.111761 -0.14777,0.02439 -0.65015,0.09658 -0.76373,0.165185 -0.55378,0.334507 -0.51232,0.715701 -0.37989,1.249702 0.19671,0.991772 0.22751,2.008582 0.28781,3.015457 0.0998,1.512465 0.081,3.025119 0.0641,4.540449 -0.0103,1.7564 -0.0302,3.51464 0.0724,5.26895 0.11697,1.77128 0.31399,3.53961 0.30828,5.31699 0.0199,1.36465 0.0749,2.73282 -0.0341,4.0951 -0.16014,1.5347 -0.4092,3.06314 -0.91348,4.52518 -0.22223,0.67433 0.72063,0.99221 0.94286,0.31788 z" />
    <path
       id="path144-40"
       style="fill:#f60000;fill-opacity:1;stroke-width:0.604197;stroke-linejoin:round;paint-order:stroke fill markers"
       d="m 184.42762,95.563654 c -0.48993,-0.0035 -0.94602,0.143629 -1.38266,0.397683 -0.17665,0.102781 -0.33499,0.233658 -0.50262,0.350582 -0.41331,0.386246 -0.5716,0.49421 -0.8997,0.964097 -0.41401,0.592904 -0.62939,1.150991 -0.69222,1.872152 -0.017,0.196205 -0.002,0.393907 -0.004,0.590859 0.037,0.383533 0.0524,0.599743 0.11083,0.976023 0.0328,0.21043 0.0754,0.41924 0.12162,0.62722 -1.01053,0.059 -2.01968,0.24757 -2.96145,0.64095 -0.9477,0.39586 -1.15509,0.64234 -1.95085,1.26996 -0.25586,0.26738 -0.52739,0.51802 -0.76735,0.80193 -0.69678,0.82445 -1.26298,1.79676 -1.64737,2.83148 -0.31274,0.84182 -0.33757,1.1674 -0.50559,2.04565 -0.0795,0.82808 -0.14839,1.20761 -0.10138,2.04208 0.0552,0.97931 0.28511,1.93485 0.7244,2.79809 0.14,0.27509 0.31797,0.52534 0.477,0.7882 0.18791,0.23059 0.36431,0.47278 0.56401,0.69163 0.18463,0.20232 0.38398,0.38959 0.58729,0.56999 0.49476,0.43903 1.04474,0.81291 1.65512,1.03266 0.31518,0.15904 0.6439,0.28679 0.9647,0.43287 0.95902,0.22934 1.17851,0.3277 2.16967,0.37801 0.34103,0.0173 0.68278,0.004 1.02372,-0.0161 1.15151,-0.0652 2.29176,-0.26823 3.3949,-0.6326 0.30226,-0.12205 0.60877,-0.23329 0.90687,-0.36667 0.58696,-0.26264 1.23307,-0.59384 1.75708,-0.98498 0.55844,-0.41686 0.99394,-0.85972 1.38323,-1.46075 0.18427,-0.28447 0.31838,-0.60244 0.47758,-0.90387 0.1292,-0.34626 0.27624,-0.68586 0.38756,-1.03924 0.24616,-0.78153 0.44343,-1.70657 0.54613,-2.52024 0.11433,-0.90594 0.17497,-1.96596 0.0556,-2.87619 -0.0618,-0.47138 -0.20894,-0.92547 -0.3136,-1.38802 -0.52667,-0.96727 -0.56707,-1.22321 -1.38564,-1.97053 -0.99836,-0.91146 -2.29537,-1.47038 -3.55411,-1.79761 -0.45674,-0.11878 -0.92499,-0.17954 -1.38742,-0.26951 -0.41291,-0.0332 -0.82487,-0.0845 -1.23835,-0.10558 -0.065,-0.27876 -0.12883,-0.55832 -0.17231,-0.84126 -0.0476,-0.30909 -0.066,-0.556747 -0.096,-0.871095 -0.0192,-0.456177 0.0467,-0.89942 0.26175,-1.307523 0.13262,-0.25161 0.38221,-0.568599 0.57773,-0.76973 0.11328,-0.116524 0.24219,-0.216972 0.36311,-0.325539 0.30671,-0.220463 0.63859,-0.432575 1.03088,-0.438824 0.19644,-0.0033 0.42723,0.07105 0.601,0.151443 0.10885,0.05031 0.20868,0.11758 0.31301,0.176483 0.20614,0.162564 0.4737,0.314449 0.56999,0.577148 0.046,0.125495 0.0287,0.40976 0.0257,0.541368 -0.004,0.870608 1.2276,0.875893 1.23121,0.0059 -9.5e-4,-0.11747 0.007,-0.235277 -0.002,-0.352373 -0.0267,-0.328865 -0.0689,-0.574121 -0.22597,-0.871082 -0.22945,-0.433703 -0.62879,-0.724799 -1.02551,-0.990332 -0.443,-0.222331 -0.61651,-0.352438 -1.12031,-0.427493 -0.1168,-0.01741 -0.23215,-0.02602 -0.34521,-0.02682 z m -2.58882,7.008046 c 0.14947,-8e-4 0.29798,9.4e-4 0.44537,0.006 0.43656,0.0134 0.87097,0.0739 1.30634,0.11095 0.42212,0.0844 0.84958,0.14265 1.26639,0.25339 1.10062,0.29246 2.23446,0.77791 3.09799,1.59253 0.62296,0.5877 0.65836,0.80938 1.03801,1.56092 0.0635,0.3475 0.15572,0.69062 0.1902,1.04279 0.0808,0.82428 0.0291,1.67321 -0.0792,2.49045 -0.0988,0.74499 -0.27691,1.57352 -0.5056,2.28831 -0.0995,0.31107 -0.23178,0.60895 -0.34759,0.91342 -0.35164,0.64692 -0.39585,0.84073 -0.9015,1.34926 -0.60063,0.60403 -1.36562,0.99852 -2.11779,1.33017 -0.27421,0.12091 -0.55577,0.22215 -0.83353,0.3333 -1.00416,0.32306 -2.03994,0.50328 -3.08607,0.55866 -0.3126,0.0165 -0.62649,0.0281 -0.93905,0.0105 -0.84722,-0.0468 -1.07868,-0.14412 -1.8978,-0.34701 -0.24772,-0.11874 -0.50145,-0.22392 -0.74586,-0.34998 -0.005,-0.002 -0.009,-0.006 -0.0144,-0.009 -0.0447,-0.0232 -0.0896,-0.046 -0.13355,-0.0709 -0.73361,-0.41792 -1.3822,-0.98246 -1.96696,-1.611 -0.11596,-0.12463 -0.22228,-0.25902 -0.33329,-0.38874 -0.0127,-0.0148 -0.0263,-0.0248 -0.0393,-0.0382 -0.10103,-0.16468 -0.20496,-0.32818 -0.29037,-0.50261 -0.34421,-0.70296 -0.51408,-1.47978 -0.54852,-2.27042 -0.031,-0.71318 0.0298,-1.04909 0.10255,-1.76125 0.15171,-0.76815 0.17481,-1.05201 0.45374,-1.78451 0.3395,-0.89153 0.83966,-1.73096 1.44764,-2.43797 0.20932,-0.24343 0.44588,-0.45738 0.66896,-0.68626 0.68153,-0.52512 0.84893,-0.72644 1.65452,-1.04698 0.97542,-0.38809 2.06231,-0.53163 3.10873,-0.53719 z" />
  </g>
</svg>
