<?xml version="1.0" encoding="UTF-8" standalone="no"?>
<!-- Created with Inkscape (http://www.inkscape.org/) -->

<svg
   width="300mm"
   height="200mm"
   viewBox="0 0 300 200"
   version="1.1"
   id="svg1"
   inkscape:version="1.3 (0e150ed6c4, 2023-07-21)"
   sodipodi:docname="рисунок-etotshe.svg"
   inkscape:export-filename="..\..\Vue\NeweraKef\Kef 2.0\Kefnewsuper\frontend\src\assets\GameObjects\Minesobjects\sector.svg"
   inkscape:export-xdpi="96"
   inkscape:export-ydpi="96"
   xmlns:inkscape="http://www.inkscape.org/namespaces/inkscape"
   xmlns:sodipodi="http://sodipodi.sourceforge.net/DTD/sodipodi-0.dtd"
   xmlns="http://www.w3.org/2000/svg"
   xmlns:svg="http://www.w3.org/2000/svg">
  <sodipodi:namedview
     id="namedview1"
     pagecolor="#000000"
     bordercolor="#000000"
     borderopacity="0.25"
     inkscape:showpageshadow="2"
     inkscape:pageopacity="0.0"
     inkscape:pagecheckerboard="0"
     inkscape:deskcolor="#d1d1d1"
     inkscape:document-units="mm"
     inkscape:zoom="8"
     inkscape:cx="703"
     inkscape:cy="424.3125"
     inkscape:window-width="2560"
     inkscape:window-height="1377"
     inkscape:window-x="-8"
     inkscape:window-y="-8"
     inkscape:window-maximized="1"
     inkscape:current-layer="layer1" />
  <defs
     id="defs1" />
  <g
     inkscape:label="Слой 1"
     inkscape:groupmode="layer"
     id="layer1">
    <path
       style="opacity:1;fill:#ffffff;fill-opacity:1;stroke-width:0.499764;stroke-linejoin:round;paint-order:stroke fill markers"
       id="path132"
       d="m 167.7835,120.22966 c 0.52759,-1.53069 0.78956,-3.13054 0.95893,-4.73699 0.11592,-1.40236 0.0599,-2.81099 0.0395,-4.21597 0.006,-1.79484 -0.1925,-3.58047 -0.3104,-5.36913 -0.10062,-1.73022 -0.0796,-3.46428 -0.0703,-5.19653 0.0181,-1.539441 0.0347,-3.076139 -0.0663,-4.612705 -0.0534,-1.050893 -0.1084,-2.106085 -0.30404,-3.141389 -0.0594,-0.186598 0.0121,-0.164113 0.0348,-0.184213 0.10659,-0.01193 0.18694,-0.02842 0.29281,-0.04575 0.9631,-0.130122 1.93853,-0.101044 2.90767,-0.09876 1.62922,0.0073 3.25847,0.01208 4.88769,0.0132 1.55452,0.06065 3.10724,0.138899 4.65788,0.26284 1.18851,0.04277 2.37161,0.193686 3.56058,0.22734 0.60802,0.01722 1.12021,-0.0075 1.72654,-0.02641 1.5384,-0.09577 3.08393,-0.04591 4.62115,-0.151028 0.79242,-0.08448 1.16486,-0.0086 1.96149,-0.0152 0.72197,-7.98e-4 1.06659,0.04198 1.78854,0.04582 0.45383,-0.01874 0.63889,0.177247 0.78423,0.252084 0.3529,0.360147 0.17477,0.976954 0.21477,1.201819 0.15861,1.383291 0.0144,2.396705 -0.007,3.786301 -0.0226,1.011701 0.11428,1.86173 0.11428,2.87362 -0.0527,1.41625 0.3189,2.57073 0.22187,3.98379 -0.0995,1.39439 -0.0301,3.39439 -0.0912,4.78947 -0.0465,1.366 -0.0189,2.46283 -0.13436,3.82411 -0.0308,0.80152 -0.0289,1.61009 -0.12414,2.40617 -0.0668,0.60899 0.21496,1.60783 0.22093,2.21963 0.0251,0.46781 0.0302,0.63993 0.057,0.94201 -0.005,0.11952 -0.0493,0.45891 -0.15009,0.56063 -0.0164,0.0166 -0.1109,0.1421 -0.13395,0.13875 -0.84266,0.43825 -1.34175,0.29661 -2.26671,0.41607 -2.09194,0.18064 -3.76977,0.15753 -5.86862,0.21216 -2.21252,0.0236 -4.42661,0.0456 -6.63831,-0.0273 -1.76947,-0.0656 -3.53707,-0.12356 -5.30117,-0.28057 -1.30526,-0.0958 -2.61624,-0.0618 -3.92388,-0.0567 -0.76085,0.003 -1.52172,0.006 -2.28257,0.008 -0.32335,7.9e-4 -0.59642,0.004 -0.90731,-0.0671 -0.25652,-0.0602 -0.38128,-0.78137 -1.01364,-0.49211 -0.70125,-0.0466 -0.47486,1.33232 0.22639,1.37894 v 0 c 0.19791,0.012 0.3941,0.0309 0.58315,0.097 1.1139,0.22502 2.27198,0.008 3.3978,0.0801 1.27731,-0.005 2.55788,-0.0386 3.83295,0.0529 1.7824,0.15854 3.56831,0.21802 5.35612,0.28391 2.23099,0.0726 4.46427,0.052 6.69608,0.0274 2.13234,-0.0557 3.84381,-0.0338 5.96894,-0.21992 1.11244,-0.14383 1.90655,-0.0359 2.87845,-0.65855 0.0899,-0.0916 0.19614,-0.1692 0.26971,-0.27458 0.24989,-0.35796 0.22832,-0.72813 0.19812,-1.11255 -0.0131,-0.17771 0.0108,-0.411 -0.002,-0.53473 -0.0197,-0.18656 -0.0133,-0.36244 -0.0304,-0.5493 -0.006,-0.56826 -0.24073,-1.45809 -0.17946,-2.02386 0.0965,-0.80759 0.0976,-1.62802 0.12769,-2.44102 0.11647,-1.37531 0.0898,-2.48625 0.13706,-3.86632 0.0584,-1.38662 -0.005,-3.37762 0.0897,-4.76355 0.0983,-1.4362 -0.2693,-2.61372 -0.21949,-4.05332 -1e-5,-1.00668 -0.13695,-1.851486 -0.11438,-2.857973 0.0223,-1.456761 0.16853,-2.538286 -0.0103,-3.987381 -0.15545,-0.810365 0.1643,-1.736854 -0.43536,-2.171673 -0.0778,-0.05638 -0.23629,-0.143945 -0.33157,-0.152311 -0.0996,-0.01048 -0.0743,-0.04875 -0.33106,-0.0018 -0.10031,0.01836 -0.20786,0.0085 -0.30939,0.018 -0.0617,0.0057 -0.12401,-5.3e-4 -0.18599,-5.3e-4 -0.72651,-0.004 -1.45302,-0.01193 -2.17956,-0.01113 -0.8166,0.0073 -1.20917,-0.06967 -2.0214,0.01754 -1.52427,0.108502 -3.05815,0.04967 -4.58367,0.149137 -0.54626,0.01732 -1.09427,0.0428 -1.64106,0.02744 -1.18106,-0.03317 -2.35629,-0.183627 -3.53691,-0.225737 -1.57644,-0.125989 -3.15504,-0.2058 -4.73545,-0.265965 -1.62872,-0.0011 -3.25742,-0.006 -4.88611,-0.01319 -1.02324,-0.0024 -2.05304,-0.03109 -3.06935,0.111761 -0.14777,0.02439 -0.65015,0.09658 -0.76373,0.165185 -0.55378,0.334507 -0.51232,0.715701 -0.37989,1.249702 0.19671,0.991772 0.22751,2.008582 0.28781,3.015457 0.0998,1.512465 0.081,3.025119 0.0641,4.540448 -0.0103,1.7564 -0.0302,3.51464 0.0724,5.26895 0.11697,1.77128 0.31399,3.53961 0.30828,5.31699 0.0199,1.36465 0.0749,2.73282 -0.0341,4.0951 -0.16014,1.5347 -0.4092,3.06314 -0.91348,4.52518 -0.22223,0.67433 0.72063,0.99221 0.94286,0.31788 z"
       sodipodi:nodetypes="ccccccccccccsccccccccccccccccccccccccsscccccccsccccccccccscscccccscccccccccccccc" />
  </g>
</svg>
