<svg xmlns="http://www.w3.org/2000/svg" fill="#3cc8c8" height="26" width="26" xmlns:v="https://vecta.io/nano"><path d="M25.93 13c0 7.142-5.789 12.932-12.931 12.932S.067 20.142.067 13 5.856.069 12.998.069 25.93 5.858 25.93 13z" opacity=".2"/><path d="M13.868 6.599c.174-.33-.225-.729-.552-.557-.266.107-.334.496-.127.693.195.205.578.133.679-.135zm-3.639.146a.33.33 0 0 0-.43-.32c-.276.074-.307.514-.039.619.202.113.49-.062.469-.299zm6.772.306c-.31-.038-.36-.531-.061-.63.232-.114.444.1.478.322-.049.189-.206.363-.418.308zm-5.647 1.379c.051-.39-.423-.705-.755-.493a.52.52 0 0 0-.072.849c.292.266.809.038.826-.355zm4.314-.268c.148-.386.748-.397.917-.022.167.292-.038.654-.335.753-.393.074-.767-.355-.582-.731zM13.5 8.27c-.312.023-.611.27-.607.601-.018.271.174.492.401.605l.069.005c.128.01.262.021.378-.044a.61.61 0 0 0 .28-.825c-.089-.211-.314-.3-.521-.342zM7.663 9.353c.303-.188.713.155.598.488-.063.288-.446.405-.665.221-.234-.172-.197-.586.068-.709zm11.881.357c.031-.328-.394-.56-.651-.358a.43.43 0 0 0 .046.729.42.42 0 0 0 .605-.371zm-5.181.238c.425-.154.929.03 1.171.413a1.04 1.04 0 0 1-.346 1.448 1.02 1.02 0 0 1-1.453-.531 1.03 1.03 0 0 1 .628-1.33zm-1.16.501c-.227-.486-.861-.675-1.331-.45a1.04 1.04 0 0 0-.473 1.385c.232.508.907.716 1.386.442.478-.244.685-.904.418-1.377zm-3.826.411c.036-.306.322-.506.61-.526.311.038.559.282.593.6-.02.315-.261.622-.591.62a.6.6 0 0 1-.612-.694zm8.243.073c.017-.433-.501-.752-.874-.533-.4.191-.43.821-.045 1.045.371.269.944-.054.919-.513zm-6.762 1.083a1.02 1.02 0 0 1 1.149.491c.234.407.139.974-.225 1.273a1.02 1.02 0 0 1-1.576-.336c-.285-.549.061-1.284.653-1.428zm5.876.43c-.228-.39-.726-.555-1.15-.433a1.04 1.04 0 0 0-.598 1.469 1.02 1.02 0 0 0 1.457.364c.449-.288.593-.953.291-1.399zm-8.681.076a.52.52 0 0 1 .642.653.51.51 0 0 1-.82.217c-.29-.238-.183-.767.179-.871zm10.749-.065c-.32.018-.549.297-.538.612.063.147.139.3.287.377.316.176.763-.079.739-.453.02-.284-.23-.494-.488-.535zm-12.601.25c.227-.1.507.098.455.353-.012.288-.433.399-.587.158-.137-.167-.055-.425.132-.511zm14.77.15c-.063-.188-.319-.271-.479-.156-.265.143-.161.638.16.609.229.035.426-.247.319-.453zm-8.881 1.226c.596-.157 1.237.346 1.241.966.039.627-.592 1.183-1.203 1.038-.472-.077-.842-.536-.827-1.018-.001-.461.343-.889.789-.986zm3.618.974c.01-.635-.651-1.146-1.256-.975-.359.09-.663.389-.742.756-.157.551.258 1.176.82 1.249.598.122 1.21-.415 1.178-1.03zm-5.81-.593c.419-.072.812.4.642.801a.6.6 0 0 1-1.013.195c-.32-.336-.081-.95.372-.996zm7.73.597c.029-.409-.43-.736-.803-.578-.451.145-.527.84-.113 1.076.365.263.931-.048.916-.498zm1.133 1.384c-.146-.275.119-.64.422-.589.142-.002.244.104.336.201l.016.017.004.028c.02.157.042.337-.085.456-.182.233-.595.166-.694-.112zm-10.471-.085c.064-.334-.344-.618-.626-.428-.269.139-.279.572-.019.724a.43.43 0 0 0 .645-.297zm4.963.191a.6.6 0 0 1 .807.573c.027.455-.556.771-.918.497-.402-.235-.335-.925.111-1.07zm-1.879 1.088c.029-.357-.395-.646-.71-.479-.222.084-.313.332-.317.554.076.204.231.418.467.424.286.043.569-.206.559-.499zm4.534-.473c.324-.203.785.088.755.47.008.399-.513.654-.815.392-.292-.205-.257-.699.06-.862zm1.172 1.741c-.234.05-.404.316-.26.537.148.256.58.164.608-.134.04-.221-.16-.364-.348-.402zm-7.498.345c.057-.175.197-.349.4-.303.297.021.385.473.125.613-.234.159-.505-.059-.526-.31zm4.099-.047c-.218-.137-.55-.012-.607.247-.104.261.146.577.422.544.149.004.264-.103.353-.21l.055-.217-.001-.005c-.037-.138-.08-.298-.222-.36z" fill-rule="evenodd"/></svg>