<svg xmlns="http://www.w3.org/2000/svg" width="26" height="26" fill="none" xmlns:v="https://vecta.io/nano"><path opacity=".2" d="M13 26c7.18 0 13-5.82 13-13S20.18 0 13 0 0 5.82 0 13s5.82 13 13 13z" fill="#8eff1a"/><path fill-rule="evenodd" d="M17.037 12.607c-.375-.309-.864-.463-1.465-.463.625-.564.78-1.295.463-2.193-.112-.326-.273-.593-.482-.801s-.457-.355-.747-.441-.591-.132-.906-.136-.668.023-1.059.083l-.477-1.91-1.118.279.463 1.857-.882.236-.467-1.872-1.118.279.477 1.91-.702.184-1.541.377.31 1.243.806-.201c.368-.092.626.026.775.354l.543 2.175a.73.73 0 0 1 .118-.021l-.116.029.761 3.047c.026.267-.083.431-.325.492l-.806.201.121 1.443 1.452-.363.4-.096.393-.094.482 1.933 1.118-.279-.477-1.91.888-.213.475 1.902 1.118-.279-.482-1.933a8.59 8.59 0 0 0 1.028-.377 4.29 4.29 0 0 0 .817-.482 2.44 2.44 0 0 0 .593-.619c.145-.224.245-.488.3-.791s.055-.639-.001-1.006c-.112-.718-.356-1.231-.731-1.54zm-5.846-2.131h0l.581 2.327.252-.059.338-.084.359-.106a3.03 3.03 0 0 0 .389-.141l.353-.177c.134-.071.24-.147.317-.228a2.05 2.05 0 0 0 .218-.272.75.75 0 0 0 .123-.341 1.13 1.13 0 0 0-.031-.403 1.06 1.06 0 0 0-.201-.421c-.093-.114-.193-.202-.301-.263s-.242-.103-.401-.125a2.48 2.48 0 0 0-.431-.025c-.127.005-.281.022-.462.051l-.426.086-.39.106-.286.075h0 0 0zm4.239 4.747a1.12 1.12 0 0 0 .102-.348c.017-.128.008-.262-.027-.404-.046-.182-.122-.335-.23-.458s-.226-.217-.356-.282-.288-.107-.475-.127a3.52 3.52 0 0 0-.511-.021 4.22 4.22 0 0 0-.554.066l-.507.102-.466.124-.343.094.64 2.562.27-.063.35-.083.382-.107.417-.136.398-.168c.15-.07.275-.138.376-.207s.203-.15.305-.245.179-.195.23-.299z" fill="#82ff00"/></svg>