<svg width="26" height="26" fill="none" xmlns="http://www.w3.org/2000/svg"><path opacity=".2" d="M25.93 13c0 7.142-5.79 12.932-12.932 12.932S.067 20.142.067 13 5.857.07 12.998.07C20.14.069 25.93 5.859 25.93 13z" fill="#505050"/><g opacity=".8" fill="#fff"><path d="m12.957 7-.08.271v7.878l.08.08 3.656-2.161L12.957 7z"/><path d="M12.957 7 9.3 13.068l3.657 2.161V7zM12.957 16.419l-.045.055v2.806l.045.131 3.659-5.153-3.66 2.16z"/><path d="M12.957 19.411V16.42L9.3 14.259l3.657 5.152zM12.957 15.229l3.656-2.161-3.656-1.663v3.824z"/><path d="m9.3 13.068 3.657 2.161v-3.824L9.3 13.068z"/></g></svg>