<?xml version="1.0" encoding="utf-8"?>
<svg xmlns="http://www.w3.org/2000/svg" fill="none" height="26" viewBox="0 0 26 26" width="26">
<path d="M25.9295 13.0002C25.9295 20.1421 20.14 25.9318 12.9982 25.9318C5.85625 25.9318 0.0666504 20.1421 0.0666504 13.0002C0.0666504 5.8584 5.85625 0.0688095 12.9982 0.0688095C20.1399 0.0688095 25.9295 5.8584 25.9295 13.0002Z" fill="#505050" opacity="0.2"/>
<g opacity="0.8">
<path d="M12.9568 7L12.877 7.27148V15.1493L12.9568 15.229L16.6136 13.0675L12.9568 7Z" fill="white"/>
<path d="M12.9568 7L9.30005 13.0675L12.9568 15.229V11.4054V7Z" fill="white"/>
<path d="M12.9568 16.4188L12.9117 16.4736V19.2799L12.9568 19.4113L16.6157 14.2583L12.9568 16.4188Z" fill="white"/>
<path d="M12.9568 19.4114V16.4188L9.30005 14.2583L12.9568 19.4114Z" fill="white"/>
<path d="M12.9568 15.229L16.6135 13.0675L12.9568 11.4054V15.229Z" fill="white"/>
<path d="M9.30005 13.0675L12.9568 15.229V11.4054L9.30005 13.0675Z" fill="white"/>
</g>
</svg>