<svg width="26" height="26" fill="none" xmlns="http://www.w3.org/2000/svg"><path opacity=".2" d="M13 26c7.18 0 13-5.82 13-13S20.18 0 13 0 0 5.82 0 13s5.82 13 13 13z" fill="#505050"/><path fill-rule="evenodd" clip-rule="evenodd" d="m18.047 10.16-.258-.184h-.001a275.825 275.825 0 0 1-1.271-.905.673.673 0 0 0-.197-.112l-.006-.003c-1.224-.3-2.467-.608-3.678-.907l-.347-.086-1.795-.442-1.795-.443-.095-.026a.905.905 0 0 0-.366-.047.253.253 0 0 0-.102.039l-.033.028a.414.414 0 0 0-.095.152L8 7.246v.13l.006.02c.569 1.617 1.149 3.252 1.72 4.86v.001l.561 1.583.518 1.46v.001l1.243 3.502c.036.113.138.186.266.197h.028c.119 0 .224-.059.277-.155l2.196-3.247a1526.212 1526.212 0 0 0 1.605-2.374c.11-.161.219-.324.328-.486l.329-.486.045-.067c.346-.514.702-1.041 1.055-1.556l.02-.028v-.034c.008-.098.011-.3-.15-.408zm-2.573 1.183-.581.309c-.328.174-.659.35-.99.524l.925-1.007c.336-.367.684-.745 1.029-1.119l.152-.166.009-.009c.033-.045.075-.087.119-.132l.023-.023c.024-.023.048-.048.071-.075.205.143.413.29.613.433.144.104.291.208.44.312-.61.315-1.219.638-1.81.953zm-2.54 1.19c.408-.442.819-.889 1.215-1.325l.35-.38c.41-.448.828-.904 1.244-1.355L13.33 8.88a10757.286 10757.286 0 0 1-3.27-.806 43.771 43.771 0 0 1-.965-.239l.05.06.105.131.075.093c.053.067.106.134.161.197l.003.003.534.65.533.652c.782.953 1.589 1.94 2.379 2.913zm-.18 4.156.026-.246c.023-.217.046-.436.066-.651l.025-.24.05-.477.018-.169c.033-.321.067-.65.096-.973l.008-.067c.028-.242.056-.493.072-.743a.818.818 0 0 1 .1-.048l.031-.014c.031-.014.063-.028.094-.047.64-.34 1.28-.681 1.924-1.018l1.949-1.032c-.594.871-1.19 1.751-1.766 2.61l-.325.48c-.393.581-.792 1.171-1.189 1.755l-.343.507-.261.387c-.222.326-.45.66-.671.995.027-.337.06-.678.097-1.01zm-3.9-8.293.036.102 1.88 5.304.94 2.65.296.836c.039.115.08.233.122.345l.017.047c.01.025.019.051.027.077a62.394 62.394 0 0 0 .073-.703l.015-.146c.053-.51.108-1.034.154-1.552l.002-.02.064-.56.01-.084c.011-.097.023-.194.029-.292v-.003c.022-.2.042-.396.061-.593l.036-.344c.018-.173.036-.347.056-.52a6.99 6.99 0 0 1-.218-.26l-.074-.091a1180.583 1180.583 0 0 1-3.599-4.395l.072.202z" fill="#fff"/></svg>