<?xml version="1.0" encoding="utf-8"?>
<svg xmlns="http://www.w3.org/2000/svg" fill="none" height="26" viewBox="0 0 26 26" width="26">
<path d="M13 26C20.1797 26 26 20.1797 26 13C26 5.8203 20.1797 0 13 0C5.8203 0 0 5.8203 0 13C0 20.1797 5.8203 26 13 26Z" fill="#32A4BE" opacity="0.2"/>
<path d="M13 26C20.1797 26 26 20.1797 26 13C26 5.8203 20.1797 0 13 0C5.8203 0 0 5.8203 0 13C0 20.1797 5.8203 26 13 26Z" fill="#C2A633" opacity="0.2"/>
<mask height="26" id="mask0_27_170" maskUnits="userSpaceOnUse" style="mask-type:alpha" width="26" x="0" y="0">
<path d="M13 26C20.1797 26 26 20.1797 26 13C26 5.8203 20.1797 0 13 0C5.8203 0 0 5.8203 0 13C0 20.1797 5.8203 26 13 26Z" fill="white"/>
</mask>
<g mask="url(#mask0_27_170)">
<path clip-rule="evenodd" d="M13.2151 7.78572H9.66554V12.5H7.5V14.0714H9.66554V18.7857H13.2151C15.0886 18.7857 15.4923 18.5895 16.2997 18.1971C16.3624 18.1666 16.4275 18.135 16.4959 18.1021C17.4457 17.6464 18.1839 17.0048 18.7103 16.1771C19.2368 15.3495 19.5 14.3857 19.5 13.2857C19.5 12.1857 19.2368 11.2219 18.7103 10.3943C18.1839 9.56667 17.4457 8.92501 16.4959 8.46929C15.5461 8.01358 14.4525 7.78572 13.2151 7.78572ZM12.3033 14.0714V16.6957H13.0848C14.2246 16.6957 15.1336 16.3893 15.8121 15.7764C16.4905 15.1636 16.8297 14.3333 16.8297 13.2857C16.8297 12.2381 16.4905 11.4079 15.8121 10.795C15.1336 10.1821 14.2246 9.87572 13.0848 9.87572H12.3033V12.5H14.827V14.0714H12.3033Z" fill="#C2A633" fill-rule="evenodd"/>
</g>
</svg>