<svg width="26" height="26" fill="none" xmlns="http://www.w3.org/2000/svg"><path opacity=".2" d="M25.93 13c0 7.142-5.79 12.932-12.932 12.932S.067 20.142.067 13 5.857.07 12.998.07C20.14.069 25.93 5.859 25.93 13z" fill="#F6D43D"/><path d="m16.632 18.404-.298-1.355a.26.26 0 0 0-.35-.196l-.042.016-.103.026-.157.038a5.311 5.311 0 0 1-1.052.124 3.433 3.433 0 0 1-3.222-2.165h3.298c.062 0 .12-.021.17-.064a.258.258 0 0 0 .094-.157l.204-.955a.277.277 0 0 0-.05-.23.266.266 0 0 0-.214-.102H11a7.687 7.687 0 0 1 0-.895h4.159c.153 0 .244-.074.272-.222l.205-.971a.25.25 0 0 0-.06-.222.251.251 0 0 0-.213-.102h-3.988a3.367 3.367 0 0 1 1.278-1.5 3.496 3.496 0 0 1 1.926-.546c.023-.011.107-.008.251.009.145.017.228.024.248.021.02-.003.093.006.221.025l.192.03.15.03.097.021.034.009a.25.25 0 0 0 .324-.187l.367-1.356a.283.283 0 0 0-.026-.204.324.324 0 0 0-.17-.128A6.796 6.796 0 0 0 14.612 7c-1.273 0-2.41.364-3.413 1.09a5.553 5.553 0 0 0-2.075 2.882h-.836a.265.265 0 0 0-.196.076.266.266 0 0 0-.076.196v.972c0 .08.025.145.076.196a.265.265 0 0 0 .196.076h.571c-.017.273-.02.571-.008.895h-.563a.262.262 0 0 0-.191.081.262.262 0 0 0-.081.192v.963c0 .074.027.138.08.192.055.054.119.08.192.08h.81c.358 1.256 1.034 2.255 2.028 2.996.995.742 2.157 1.113 3.486 1.113a6.167 6.167 0 0 0 .64-.035 8.236 8.236 0 0 0 .758-.123c.068-.014.13-.03.183-.047.054-.017.1-.03.137-.038a.424.424 0 0 0 .089-.03l.043-.008a.268.268 0 0 0 .145-.124.25.25 0 0 0 .025-.191z" fill="#FBE41A"/></svg>