<?xml version="1.0" encoding="UTF-8"?>
<svg  xmlns="http://www.w3.org/2000/svg" fill="none" height="26" width="26" viewBox="0 0 2500 2500"  >
<style type="text/css">
	.st0{fill:url(#SVGID_1_);}
	.st1{fill:#FFFFFF;}
</style>


	<path class="st1" d="M1612,1520l354-204c19-11,30-31,30-53V855c0-22-12-42-30-53l-354-204c-19-11-42-11-61,0l-354,204    c-19,11-30,31-30,53v730l-248,143l-248-143v-286l248-143l164,94v-192l-133-77c-9-5-20-8-30-8c-11,0-21,3-30,8l-354,204    c-19,11-30,31-30,53v408c0,22,12,42,30,53l354,204c19,11,42,11,61,0l354-204c19-11,30-31,30-53V916l4-3l244-141l248,143v286    l-248,143l-163-94v192l133,77c19,11,42,11,61,0l0,0L1612,1520z"></path>

</svg>
