<svg width="26" height="26" fill="none" xmlns="http://www.w3.org/2000/svg"><path opacity=".2" d="M25.93 13c0 7.142-5.79 12.932-12.932 12.932S.067 20.142.067 13 5.857.07 12.998.07C20.14.069 25.93 5.859 25.93 13z" fill="#00A478"/><path d="M11.672 12.774v-2.262H8.604V8.527h8.574v2.011H14.11v2.235h-2.438z" fill="#00A478"/><path fill-rule="evenodd" clip-rule="evenodd" d="M7.285 13.025c0-.754 2.466-1.368 5.534-1.368 3.068 0 5.535.614 5.535 1.368 0 .754-2.466 1.369-5.535 1.369-3.068 0-5.534-.615-5.534-1.369zm10.61 0c-.2-.28-1.864-1.145-5.076-1.145-3.212 0-4.875.838-5.076 1.145.201.28 1.864.698 5.076.698 3.24 0 4.875-.418 5.076-.698z" fill="#00A478"/><path d="M14.11 13.472v-1.564a18.25 18.25 0 0 0-1.262-.056c-.402 0-.775 0-1.147.028v1.564c.344 0 .745.028 1.147.028.43.028.86.028 1.262 0zM12.82 14.394c-.402 0-.775 0-1.148-.028v4.161h2.409v-4.19c-.402.029-.832.057-1.262.057z" fill="#00A478"/></svg>