<svg width="26" height="26" viewBox="0 0 26 26" fill="none" xmlns="http://www.w3.org/2000/svg">
<path opacity="0.2" d="M13 26C20.1797 26 26 20.1797 26 13C26 5.8203 20.1797 0 13 0C5.8203 0 0 5.8203 0 13C0 20.1797 5.8203 26 13 26Z" fill="#45525B"/>
<path fill-rule="evenodd" clip-rule="evenodd" d="M7 6L12.4319 20L20 10.5547L17.3206 7.94553L7 6ZM8.9257 7.11362L16.3649 8.51621L13.4772 10.9807L8.9257 7.11362ZM8.40982 7.63451L13.1533 11.6649L12.4116 17.9495L8.40982 7.63451ZM17.1545 8.80265L18.7332 10.3401L14.4155 11.1411L17.1545 8.80265ZM13.8399 11.9982L18.6212 11.1115L13.137 17.9562L13.8399 11.9982Z" fill="#C63127"/>
</svg>
