<?xml version="1.0" encoding="utf-8"?>
<svg xmlns="http://www.w3.org/2000/svg" fill="none" height="26" viewBox="0 0 26 26" width="26">
<path clip-rule="evenodd" d="M13 26C20.1797 26 26 20.1797 26 13C26 5.8203 20.1797 0 13 0C5.8203 0 0 5.8203 0 13C0 20.1797 5.8203 26 13 26Z" fill="#4191E9" fill-rule="evenodd" opacity="0.2"/>
<path d="M16 14.473C16 13.0208 15.0597 12.5228 13.1791 12.3154C11.8358 12.1494 11.5671 11.8175 11.5671 11.2365C11.5671 10.6555 12.0149 10.2822 12.9104 10.2822C13.7164 10.2822 14.1642 10.5311 14.3881 11.1535C14.4329 11.278 14.5672 11.361 14.7015 11.361H15.4179C15.597 11.361 15.7313 11.2365 15.7313 11.0706V11.0291C15.5522 10.1162 14.7462 9.41082 13.7164 9.32786V8.33202C13.7164 8.16601 13.5821 8.04153 13.3582 8H12.6866C12.5074 8 12.3731 8.12448 12.3283 8.33202V9.28634C10.985 9.45234 10.1343 10.2822 10.1343 11.3196C10.1343 12.6888 11.0298 13.2282 12.9104 13.4357C14.1642 13.6432 14.5672 13.8921 14.5672 14.5561C14.5672 15.22 13.9403 15.6764 13.0896 15.6764C11.9253 15.6764 11.5223 15.2199 11.388 14.5975C11.3433 14.4316 11.209 14.3485 11.0746 14.3485H10.3134C10.1343 14.3485 10 14.473 10 14.639V14.6805C10.179 15.7178 10.8955 16.4647 12.3731 16.6722V17.6681C12.3731 17.834 12.5074 17.9585 12.7313 18H13.4029C13.5821 18 13.7164 17.8755 13.7612 17.6681V16.6722C15.1045 16.4647 16 15.5933 16 14.473Z" fill="#067DFF"/>
<path d="M10.7395 19.474C7.28218 18.1793 5.50917 14.1561 6.79465 10.5953C7.45951 8.65312 8.92221 7.17338 10.7395 6.47974C10.9168 6.38729 11.0054 6.24856 11.0054 6.01727V5.36991C11.0054 5.1849 10.9168 5.04617 10.7395 5C10.6951 5 10.6065 5 10.5621 5.04617C6.35137 6.43346 4.04647 11.1041 5.3762 15.4971C6.17404 18.0867 8.08001 20.0752 10.5621 20.9076C10.7395 21 10.9168 20.9076 10.9611 20.7225C11.0054 20.6764 11.0054 20.6301 11.0054 20.5376V19.8902C11.0054 19.7514 10.8724 19.5665 10.7395 19.474ZM15.4379 5.04617C15.2605 4.95372 15.0832 5.04617 15.0389 5.23118C14.9946 5.27746 14.9946 5.32363 14.9946 5.41619V6.06355C14.9946 6.24856 15.1276 6.43346 15.2605 6.52602C18.7178 7.82075 20.4908 11.8439 19.2054 15.4047C18.5405 17.3469 17.0778 18.8266 15.2605 19.5203C15.0832 19.6127 14.9946 19.7514 14.9946 19.9827V20.6301C14.9946 20.8151 15.0832 20.9538 15.2605 21C15.3049 21 15.3935 21 15.4379 20.9538C19.6486 19.5665 21.9535 14.8959 20.6238 10.5029C19.826 7.86703 17.8756 5.87854 15.4379 5.04617Z" fill="#067DFF"/>
</svg>