<svg width="26" height="26" fill="none" xmlns="http://www.w3.org/2000/svg"><path opacity=".2" d="M25.93 13c0 7.142-5.79 12.932-12.932 12.932S.067 20.142.067 13 5.857.07 12.998.07C20.14.069 25.93 5.859 25.93 13z" fill="#D69331"/><path d="M11.949 15.829h4.184v2.082h-2.576c.041.596.064 1.148.106 1.742h-2.167v-1.721H8.919c0-.681-.086-1.36.042-1.998.065-.34.45-.637.688-.934.815-.957 1.63-1.891 2.467-2.848.323-.361.644-.702 1.009-1.105H9.112V8.965h2.382V7.223h2.081v1.7h2.598c0 .702.086 1.38-.042 2.02-.065.34-.45.638-.709.935a298.25 298.25 0 0 1-2.467 2.848c-.319.38-.64.718-1.006 1.103z" fill="#D69331"/></svg>