<svg xmlns="http://www.w3.org/2000/svg" version="1.1" xmlns:xlink="http://www.w3.org/1999/xlink" xmlns:svgjs="http://svgjs.dev/svgjs" width="1000" height="976" viewBox="0 0 1000 976"><g transform="matrix(1,0,0,1,0.21448049759470678,0.3951417004048494)"><svg viewBox="0 0 253 247" data-background-color="#1b4571" preserveAspectRatio="xMidYMid meet" height="976" width="1000" xmlns="http://www.w3.org/2000/svg" xmlns:xlink="http://www.w3.org/1999/xlink"><g id="tight-bounds" transform="matrix(1,0,0,1,-0.05426356589146053,-0.09999999999999432)"><svg viewBox="0 0 253.10852713178292 247.2" height="247.2" width="253.10852713178292"><g><svg viewBox="0 0 253.10852713178295 247.20000000000002" height="247.2" width="253.10852713178292"><g><svg viewBox="0 0 253.10852713178295 247.20000000000002" height="247.20000000000002" width="253.10852713178295"><g id="textblocktransform"><svg viewBox="0 0 253.10852713178295 247.20000000000002" height="247.20000000000002" width="253.10852713178295" id="textblock"><g><svg viewBox="0 0 253.10852713178295 247.20000000000002" height="247.20000000000002" width="253.10852713178295"><g transform="matrix(1,0,0,1,0,0)"><svg width="253.10852713178295" viewBox="2.44 -37.01 38.7 37.79" height="247.20000000000002" data-palette-color="#ffffff"><path d="M14.65 0.78L3.91 0.78Q3.37 0.78 3.09 0.67 2.81 0.56 2.72 0.42 2.64 0.27 2.44-0.15L2.44-0.15 2.44-34.86Q2.44-35.4 2.45-35.64 2.47-35.89 2.54-36.22 2.61-36.55 2.77-36.68 2.93-36.82 3.22-36.91 3.52-37.01 3.96-37.01L3.96-37.01 13.96-37.01Q17.48-37.01 17.48-36.13L17.48-36.13 17.48-36.08Q17.38-27 17.38-22.56L17.38-22.56 24.24-36.84 29.3-36.82Q39.65-36.82 39.65-36.33L39.65-36.33Q39.65-36.23 39.55-36.23L39.55-36.23Q34.81-27.69 29.93-19.24L29.93-19.24 29.93-18.55 30.93-17.92 41.14-0.37Q41.14 0.02 40.58 0.49L40.58 0.49 24.9 0.49 17.92-13.13Q17.77-11.79 17.7-9.23 17.63-6.67 17.58-5.86L17.58-5.86 17.58-0.1Q17.41 0.78 14.65 0.78L14.65 0.78Z" opacity="1" transform="matrix(1,0,0,1,0,0)" fill="#ffffff" class="wordmark-text-0" data-fill-palette-color="primary" id="text-0"></path></svg></g></svg></g></svg></g></svg></g></svg></g><defs></defs></svg><rect width="253.10852713178292" height="247.2" fill="none" stroke="none" visibility="hidden"></rect></g></svg></g></svg>