<?xml version="1.0" encoding="UTF-8" standalone="no"?>
<!-- Created with Inkscape (http://www.inkscape.org/) -->

<svg
   width="100mm"
   height="100mm"
   viewBox="0 0 100 100"
   version="1.1"
   id="svg1"
   xml:space="preserve"
   xmlns:inkscape="http://www.inkscape.org/namespaces/inkscape"
   xmlns:sodipodi="http://sodipodi.sourceforge.net/DTD/sodipodi-0.dtd"
   xmlns="http://www.w3.org/2000/svg"
   xmlns:svg="http://www.w3.org/2000/svg"><sodipodi:namedview
     id="namedview1"
     pagecolor="#000000"
     bordercolor="#000000"
     borderopacity="0.25"
     inkscape:showpageshadow="2"
     inkscape:pageopacity="0.0"
     inkscape:pagecheckerboard="0"
     inkscape:deskcolor="#d1d1d1"
     inkscape:document-units="mm"
     inkscape:export-bgcolor="#000000ff" /><defs
     id="defs1" /><g
     inkscape:label="Слой 1"
     inkscape:groupmode="layer"
     id="layer1"><g
       id="g1"
       transform="matrix(0.078125,0,0,0.078125,0,21.875)"><path
         d="M 0,0 V 720 H 1280 V 0 Z"
         fill="#15212c00"
         id="path1" /><path
         d="m 101,123 v 2 c -8.087,-1.58 -18.232,5.397 -17.401,14.286 0.572,6.123 4.773,10.949 8.285,15.714 15.015,20.37 34.86,42.316 44.856,65.711 7.684,17.983 10.53,40.198 13.849,59.369 6.905,39.885 11.024,82.414 8.322,122.92 -2.14,32.092 -6.181,64.498 -12.576,96 -2.806,13.823 -9.305,35.148 -0.365,47.941 3.335,4.772 11.587,7.179 17.03,8.581 15.565,4.007 43.031,5.213 56.996,-4.224 7.18,-4.852 7.166,-15.345 14.004,-19.298 L 245.474,451.985 250,382 h 1 c 11.718,25.069 32.844,47.487 51.975,67.039 37.27,38.088 81.053,74.758 131.025,94.947 24.41,9.862 45.857,6.366 70,-1.653 6.501,-2.159 19.483,-2.965 21.384,-11.051 1.621,-6.894 -6.193,-14.644 -10.705,-18.756 -7.905,-7.202 -17.468,-14.891 -27.679,-18.425 -7.617,-2.636 -15.523,-2.043 -23,-5.413 -12.312,-5.549 -23.087,-14.166 -34,-21.978 -28.141,-20.145 -54.456,-43.458 -78.09,-68.711 -8.584,-9.172 -27.196,-23.997 -29.422,-37.003 -1.962,-11.468 16.204,-27.574 22.361,-35.996 25.598,-35.014 62.718,-72.127 100.151,-94.396 12.079,-7.186 25.486,-11.995 38,-18.36 5.461,-2.778 12.108,-6.27 12.37,-13.244 0.343,-9.099 -6.773,-18.999 -11.798,-26 C 464.244,146.073 432.29,137.2 402,152.248 353.755,176.215 317.714,219.853 285.87,262 272.695,279.439 255.558,300.908 249,322 245.289,309.542 245.964,293.727 244.595,280.711 239.49,232.188 233.433,176.639 190,147.519 178.258,139.647 164.338,133.197 151,128.544 133.713,122.514 118.656,123.78 101,123 m 806,171 c -17.971,0.772 -36.191,4.066 -54,6.576 -6.548,0.923 -16.455,0.525 -21.787,4.938 -12.334,10.208 -11.37,38.75 4.787,44.377 7.017,2.444 15.816,0.478 23,-0.467 L 895,345 c -0.758,17.646 -5.152,35.375 -6.83,53 -2.785,29.242 -2.552,58.748 -0.167,88.004 0.631,7.732 1.062,17.245 5.211,23.992 6.218,10.114 21.674,11.728 30.782,4.61 16.753,-13.092 14.131,-36.534 16.464,-55.436 3.282,-26.587 8.652,-53.074 14.653,-79.17 2.98,-12.961 4.875,-27.674 10.136,-39.942 3.13,-7.297 18.915,-6.347 25.751,-6.983 22.89,-2.128 72.94,-4.387 66.38,-39.075 -2.31,-12.23 -11.5,-14.051 -22.38,-13.999 -18.38,0.087 -36.607,4.987 -55,4.999 8.475,-36.966 16.5,-94.18 63,-98.829 18.04,-1.804 31.57,5.57 38.19,22.829 2.95,7.717 3.67,19.828 11.02,24.991 16.2,11.371 43.91,-5.108 47.31,-21.991 3.85,-19.118 -3.19,-38.395 -15.06,-53 C 1093.37,120.737 1039.06,116.198 995,133.065 944.041,152.574 924.273,206.04 914.335,255 911.716,267.9 908.047,280.844 907,294 M 697,263.424 c -43.738,5.743 -82.339,16.155 -115.999,46.746 -52.398,47.62 -68.029,146.349 -12.193,198.099 33.895,31.414 80.272,37.142 124.192,35.326 17.335,-0.717 35.573,-2.745 52,-9.056 25.425,-9.766 49.699,-26.987 60.846,-52.539 5.082,-11.648 9.233,-24.197 0.636,-34.996 -9.717,-12.207 -38.284,-20.521 -52.478,-11.276 -14.51,9.449 -8.838,28.314 -19.113,39.229 -7.212,7.661 -18.052,11.352 -27.891,14.184 -27.138,7.813 -67.337,8.56 -84.892,-18.141 -2.658,-4.043 -8.243,-14.794 -5.896,-19.722 1.57,-3.295 7.685,-4.437 10.788,-5.678 l 31,-12.179 c 31.481,-13.422 64.055,-24.451 95,-39.166 13.942,-6.629 30.543,-13.471 40.076,-26.259 C 805.07,351.907 802.421,329.291 794.255,312 777.263,276.023 735.862,258.322 697,263.424 Z"
         class="D"
         id="path2" /><path
         d="m 616,394 c 32.846,-7.599 67.332,-24.021 97,-39.782 8.953,-4.756 26.333,-15.622 19.682,-28.203 -7.456,-14.104 -31.438,-11.144 -43.682,-7.011 -24.742,8.35 -46.455,27.541 -60.833,48.996 -5.421,8.089 -10.836,16.165 -12.167,26 z"
         fill="rgba(255, 255, 255, 0)"
         id="path3" /><path
         d="m 1056,423 v 2 l 37,16 v 1 c -13.91,7.179 -25.67,20.034 -39,28.565 -32.94,21.083 -66.994,39.644 -103,55.008 -142.803,60.933 -303.125,73.051 -456,58.257 -60.017,-5.808 -119.196,-17.194 -178,-30.254 -19.797,-4.397 -39.349,-9.972 -59,-14.95 -6.939,-1.758 -14.763,-5.823 -21.942,-6.013 -4.471,-0.119 -4.87,5.213 -6.386,8.387 -2.449,5.128 -6.655,9.846 -11.672,12.583 -14.529,7.924 -38.195,5.414 -54,3.417 v 1 c 15.578,3.604 30.641,10.083 46,14.576 39.638,11.594 79.551,22.046 120,30.421 154.36,31.96 315.744,40.55 471,10.002 79.22,-15.587 155.268,-42.234 227,-79.257 26.29,-13.57 51.76,-29.523 76,-46.462 7.36,-5.146 14.3,-10.672 20.96,-16.704 2.35,-2.132 4.83,-6.177 8.08,-6.911 3.94,-0.89 9.58,3.4 12.96,5.088 9.32,4.661 18.96,10.377 29,13.247 l -4.91,-72 -3.09,-40 -38,17.753 z"
         class="E"
         id="path4" /><path
         d="m 1054,470 1,1 -1,-1 m 108,6 1,1 -1,-1 m -71,19 1,1 -1,-1 m -14,9 1,1 -1,-1 m -87,3 1,1 -1,-1 m 59,14 1,1 -1,-1 m -98,4 1,1 -1,-1 m 91,0 1,1 z"
         class="D"
         id="path5" /><path
         d="m 231,532 -11,20 c 5.639,-4.008 12.565,-12.544 11,-20 z"
         class="C"
         id="path6" /><path
         d="m 232,532 1,1 -1,-1 m -1,2 v 3 h 1 l -1,-3 m -1,3 v 3 h 1 l -1,-3 m -0.667,3.667 0.334,0.666 -0.334,-0.666 m -1,2 0.334,0.666 -0.334,-0.666 m -1,2 0.334,0.666 -0.334,-0.666 M 226,546 l 1,1 -1,-1 m -1,1 1,1 -1,-1 m -1,1 1,1 -1,-1 m -1,1 1,1 -1,-1 m -1,1 1,1 z"
         class="B"
         id="path7" /><path
         d="m 151,551 4,3 v -1 z"
         class="E"
         id="path8" /><path
         d="m 152,551 2,2 z"
         class="B"
         id="path9" /><path
         d="m 153,551 1,1 z"
         class="C"
         id="path10" /><path
         d="m 221,551 1,1 z"
         class="B"
         id="path11" /><path
         d="m 991,551 1,1 z"
         class="D"
         id="path12" /><path
         d="m 154,552 1,1 -1,-1 m 64,0 1,1 z"
         class="C"
         id="path13" /><path
         d="m 219.667,552.333 0.666,0.334 -0.666,-0.334 M 155,553 l 1,1 z"
         class="B"
         id="path14" /><path
         d="m 156,553 1,1 -1,-1 m 46,3 v 1 l 15,-3 z"
         class="C"
         id="path15" /><path
         d="m 217.667,553.333 0.666,0.334 z"
         class="B"
         id="path16" /><path
         d="m 156,554 1,1 z"
         class="E"
         id="path17" /><path
         d="m 157,554 1,1 z"
         class="B"
         id="path18" /><path
         d="m 158.667,554.333 0.666,0.334 z"
         class="C"
         id="path19" /><path
         d="m 215.667,554.333 0.666,0.334 z"
         class="B"
         id="path20" /><path
         d="m 158,555 1,1 z"
         class="D"
         id="path21" /><path
         d="m 159,555 1,1 z"
         class="E"
         id="path22" /><path
         d="m 160,555 1,1 z"
         class="B"
         id="path23" /><path
         d="m 161.667,555.333 0.666,0.334 z"
         class="C"
         id="path24" /><path
         d="m 212.667,555.333 0.666,0.334 z"
         class="B"
         id="path25" /><path
         d="m 161,556 1,1 z"
         class="D"
         id="path26" /><path
         d="m 162,556 1,1 z"
         class="E"
         id="path27" /><path
         d="m 163,556 1,1 z"
         class="B"
         id="path28" /><path
         d="m 164,556 v 1 h 4 z"
         class="C"
         id="path29" /><path
         d="m 208.667,556.333 0.666,0.334 -0.666,-0.334 m -41,1 0.666,0.334 z"
         class="B"
         id="path30" /><path
         d="m 169,557 v 1 h 8 l -8,-1 m 21,0 v 1 h 11 z"
         class="C"
         id="path31" /><path
         d="m 201,557 v 1 h 4 z"
         class="B"
         id="path32" /><path
         d="m 734,623 1,1 -1,-1 m -257,2 1,1 z"
         class="D"
         id="path33" /></g></g><style
     id="style1"><![CDATA[.B{fill:#bbdcec}.C{fill:#daedf5}.D{fill:#fff}.E{fill:#95ddd2}]]></style><style
     id="style1-2"><![CDATA[.B{fill:#bbdcec}.C{fill:#daedf5}.D{fill:#fff}.E{fill:#95ddd2}]]></style></svg>
