<svg xmlns="http://www.w3.org/2000/svg" width="1280" height="720" xmlns:v="https://vecta.io/nano"><style><![CDATA[.B{fill:#bbdcec}.C{fill:#daedf5}.D{fill:#fff}.E{fill:#95ddd2}]]></style><path d="M0 0v720h1280V0H0z" fill="#15212c00"/><path d="M101 123v2c-8.087-1.58-18.232 5.397-17.401 14.286.572 6.123 4.773 10.949 8.285 15.714 15.015 20.37 34.86 42.316 44.856 65.711 7.684 17.983 10.53 40.198 13.849 59.369 6.905 39.885 11.024 82.414 8.322 122.92-2.14 32.092-6.181 64.498-12.576 96-2.806 13.823-9.305 35.148-.365 47.941 3.335 4.772 11.587 7.179 17.03 8.581 15.565 4.007 43.031 5.213 56.996-4.224 7.18-4.852 7.166-15.345 14.004-19.298l11.474-80.015L250 382h1c11.718 25.069 32.844 47.487 51.975 67.039 37.27 38.088 81.053 74.758 131.025 94.947 24.41 9.862 45.857 6.366 70-1.653 6.501-2.159 19.483-2.965 21.384-11.051 1.621-6.894-6.193-14.644-10.705-18.756-7.905-7.202-17.468-14.891-27.679-18.425-7.617-2.636-15.523-2.043-23-5.413-12.312-5.549-23.087-14.166-34-21.978-28.141-20.145-54.456-43.458-78.09-68.711-8.584-9.172-27.196-23.997-29.422-37.003-1.962-11.468 16.204-27.574 22.361-35.996 25.598-35.014 62.718-72.127 100.151-94.396 12.079-7.186 25.486-11.995 38-18.36 5.461-2.778 12.108-6.27 12.37-13.244.343-9.099-6.773-18.999-11.798-26-19.328-26.927-51.282-35.8-81.572-20.752-48.245 23.967-84.286 67.605-116.13 109.752-13.175 17.439-30.312 38.908-36.87 60-3.711-12.458-3.036-28.273-4.405-41.289-5.105-48.523-11.162-104.072-54.595-133.192-11.742-7.872-25.662-14.322-39-18.975-17.287-6.03-32.344-4.764-50-5.544m806 171c-17.971.772-36.191 4.066-54 6.576-6.548.923-16.455.525-21.787 4.938-12.334 10.208-11.37 38.75 4.787 44.377 7.017 2.444 15.816.478 23-.467L895 345c-.758 17.646-5.152 35.375-6.83 53-2.785 29.242-2.552 58.748-.167 88.004.631 7.732 1.062 17.245 5.211 23.992 6.218 10.114 21.674 11.728 30.782 4.61 16.753-13.092 14.131-36.534 16.464-55.436 3.282-26.587 8.652-53.074 14.653-79.17 2.98-12.961 4.875-27.674 10.136-39.942 3.13-7.297 18.915-6.347 25.751-6.983 22.89-2.128 72.94-4.387 66.38-39.075-2.31-12.23-11.5-14.051-22.38-13.999-18.38.087-36.607 4.987-55 4.999 8.475-36.966 16.5-94.18 63-98.829 18.04-1.804 31.57 5.57 38.19 22.829 2.95 7.717 3.67 19.828 11.02 24.991 16.2 11.371 43.91-5.108 47.31-21.991 3.85-19.118-3.19-38.395-15.06-53-31.09-38.263-85.4-42.802-129.46-25.935-50.959 19.509-70.727 72.975-80.665 121.935-2.619 12.9-6.288 25.844-7.335 39m-210-30.576c-43.738 5.743-82.339 16.155-115.999 46.746-52.398 47.62-68.029 146.349-12.193 198.099 33.895 31.414 80.272 37.142 124.192 35.326 17.335-.717 35.573-2.745 52-9.056 25.425-9.766 49.699-26.987 60.846-52.539 5.082-11.648 9.233-24.197.636-34.996-9.717-12.207-38.284-20.521-52.478-11.276-14.51 9.449-8.838 28.314-19.113 39.229-7.212 7.661-18.052 11.352-27.891 14.184-27.138 7.813-67.337 8.56-84.892-18.141-2.658-4.043-8.243-14.794-5.896-19.722 1.57-3.295 7.685-4.437 10.788-5.678l31-12.179c31.481-13.422 64.055-24.451 95-39.166 13.942-6.629 30.543-13.471 40.076-26.259 11.994-16.089 9.345-38.705 1.179-55.996-16.992-35.977-58.393-53.678-97.255-48.576z" class="D"/><path d="M616 394c32.846-7.599 67.332-24.021 97-39.782 8.953-4.756 26.333-15.622 19.682-28.203-7.456-14.104-31.438-11.144-43.682-7.011-24.742 8.35-46.455 27.541-60.833 48.996-5.421 8.089-10.836 16.165-12.167 26z" fill="#192635"/><path d="M1056 423v2l37 16v1c-13.91 7.179-25.67 20.034-39 28.565-32.94 21.083-66.994 39.644-103 55.008-142.803 60.933-303.125 73.051-456 58.257-60.017-5.808-119.196-17.194-178-30.254-19.797-4.397-39.349-9.972-59-14.95-6.939-1.758-14.763-5.823-21.942-6.013-4.471-.119-4.87 5.213-6.386 8.387-2.449 5.128-6.655 9.846-11.672 12.583-14.529 7.924-38.195 5.414-54 3.417v1c15.578 3.604 30.641 10.083 46 14.576 39.638 11.594 79.551 22.046 120 30.421 154.36 31.96 315.744 40.55 471 10.002 79.22-15.587 155.268-42.234 227-79.257 26.29-13.57 51.76-29.523 76-46.462 7.36-5.146 14.3-10.672 20.96-16.704 2.35-2.132 4.83-6.177 8.08-6.911 3.94-.89 9.58 3.4 12.96 5.088 9.32 4.661 18.96 10.377 29 13.247l-4.91-72-3.09-40-38 17.753L1056 423z" class="E"/><path d="M1054 470l1 1-1-1m108 6l1 1-1-1m-71 19l1 1-1-1m-14 9l1 1-1-1m-87 3l1 1-1-1m59 14l1 1-1-1m-98 4l1 1-1-1m91 0l1 1-1-1z" class="D"/><path d="M231 532l-11 20c5.639-4.008 12.565-12.544 11-20z" class="C"/><path d="M232 532l1 1-1-1m-1 2v3h1l-1-3m-1 3v3h1l-1-3m-.667 3.667l.334.666-.334-.666m-1 2l.334.666-.334-.666m-1 2l.334.666-.334-.666M226 546l1 1-1-1m-1 1l1 1-1-1m-1 1l1 1-1-1m-1 1l1 1-1-1m-1 1l1 1-1-1z" class="B"/><path d="M151 551l4 3v-1l-4-2z" class="E"/><path d="M152 551l2 2-2-2z" class="B"/><path d="M153 551l1 1-1-1z" class="C"/><path d="M221 551l1 1-1-1z" class="B"/><path d="M991 551l1 1-1-1z" class="D"/><path d="M154 552l1 1-1-1m64 0l1 1-1-1z" class="C"/><path d="M219.667 552.333l.666.334-.666-.334M155 553l1 1-1-1z" class="B"/><path d="M156 553l1 1-1-1m46 3v1l15-3-15 2z" class="C"/><path d="M217.667 553.333l.666.334-.666-.334z" class="B"/><path d="M156 554l1 1-1-1z" class="E"/><path d="M157 554l1 1-1-1z" class="B"/><path d="M158.667 554.333l.666.334-.666-.334z" class="C"/><path d="M215.667 554.333l.666.334-.666-.334z" class="B"/><path d="M158 555l1 1-1-1z" class="D"/><path d="M159 555l1 1-1-1z" class="E"/><path d="M160 555l1 1-1-1z" class="B"/><path d="M161.667 555.333l.666.334-.666-.334z" class="C"/><path d="M212.667 555.333l.666.334-.666-.334z" class="B"/><path d="M161 556l1 1-1-1z" class="D"/><path d="M162 556l1 1-1-1z" class="E"/><path d="M163 556l1 1-1-1z" class="B"/><path d="M164 556v1h4l-4-1z" class="C"/><path d="M208.667 556.333l.666.334-.666-.334m-41 1l.666.334-.666-.334z" class="B"/><path d="M169 557v1h8l-8-1m21 0v1h11l-11-1z" class="C"/><path d="M201 557v1h4l-4-1z" class="B"/><path d="M734 623l1 1-1-1m-257 2l1 1-1-1z" class="D"/></svg>
