<?xml version="1.0" standalone="yes"?>
<svg xmlns="http://www.w3.org/2000/svg" width="738" height="719">
<path style="fill:#213141; stroke:none;" d="M0 0L0 719L738 719L738 0L0 0z"/>
<path style="fill:#53af95; stroke:none;" d="M344 25.4244C277.47 34.1599 215.926 52.4093 162 94.4244C125.267 123.044 94.4858 158.21 71.8611 199C53.2994 232.465 40.9313 269.281 34.7539 307C28.8175 343.247 28.9643 381.808 35.25 418C65.8881 594.41 235.898 718.006 413 694.718C464.726 687.917 514.493 669.991 558 641C591.922 618.396 621.832 590.22 645.573 557C722.34 449.578 729.127 302.605 661.396 189C639.322 151.976 610.075 119.916 576 93.6512C542.88 68.1234 504.174 49.0428 464 37.5787C426.563 26.8955 382.94 20.3115 344 25.4244z"/>
<path style="fill:#83c3b0; stroke:none;" d="M202 175L202 239C202 243.345 199.738 257.143 204.318 259.397C210.738 262.556 223.882 260 231 260L295 260C301.564 260 322.46 256.457 323.852 265.019C325.551 275.471 324.001 287.407 324 298C324 301.342 324.931 306.653 321.682 308.821C317.907 311.34 309.498 310.486 305 310.926C292.258 312.172 278.637 312.415 266 314.143C233.485 318.59 197.842 324.169 167.999 338.93C157.462 344.142 143.535 355.724 151.564 368.985C154.872 374.447 162.072 378.199 167.424 381.39C180.957 389.46 197.234 391.784 212 395.557C225.399 398.981 238.991 402.928 253 403.001C259.234 403.033 264.003 406.066 270 406.815C287.684 409.023 306.186 409.594 324 411L324 530L324 564C324 568.358 322.829 574.789 324.603 578.852C326.964 584.259 339.211 582 344 582L396 582C400.458 582 411.116 583.962 413.972 579.682C416.208 576.332 415 569.843 415 566L415 534L415 411C424.666 410.92 433.554 408.189 443 407.174C451.601 406.249 460.416 407.883 469 406.815C494.38 403.655 519.362 397.724 544 391.414C556.714 388.158 583.302 381.214 588.4 366.999C594.631 349.628 573.94 338.987 560.911 334.012C525.452 320.475 484.816 314 447 314L447 315C482.826 315 526.997 320.98 560 335.644C574.799 342.219 599.973 357.064 580.075 373.39C576.974 375.935 573.519 378.061 569.999 379.971C536.968 397.894 495.491 400.347 459 405.572C448.485 407.077 437.593 405.985 427 407.286C423.574 407.707 418.117 407.876 415.603 410.564C410.452 416.073 414 436.661 414 444L414 540C414 550 414.052 560.001 413.999 570C413.98 573.639 414.231 578.609 409.891 579.833C399.622 582.732 384.711 580 374 580L340 580C336.496 580.001 330.39 581.405 327.434 579.168C321.668 574.807 325 554.647 325 548L325 454L325 422C325 418.595 326.149 412.455 323.397 409.858C316.126 402.999 293.389 406.554 284 405.91C250.417 403.608 216.995 396.156 185 386.475C174.024 383.153 155.461 376.056 151.564 364C146.071 347.007 175.667 337.301 187 333.089C214.394 322.907 245.107 318.642 274 315.184C288.595 313.438 308.143 316.959 321.852 310.968C325.775 309.253 324.998 304.557 325 301L325 271C325 268.02 326.073 262.147 323.397 260.028C318.85 256.427 304.657 259 299 259L232 259C225.903 259 209.117 261.91 204.603 257.397C201.337 254.13 203 245.241 203 241L203 195C203 190.542 201.038 179.884 205.318 177.028C209.912 173.962 220.639 176 226 176L280 176L466 176L515 176C519.934 176 529.435 174.194 533.682 177.028C538.078 179.961 536 191.4 536 196L536 238C536 243.145 537.483 251.074 535.397 255.852C532.707 262.013 513.713 259 508 259L439 259C433.881 259 418.511 256.437 415.028 260.742C413.088 263.14 414 268.135 414 271L414 299C414 302.215 412.999 307.685 415.603 310.142C420.958 315.194 438.949 313.981 446 314L446 313L416.603 308.258L415 298L415 272L417.318 261.179L443 260L508 260L535.397 258.972L537 238L537 175L202 175z"/>
<path style="fill:#b5dacf; stroke:none;" d="M204.603 177.028C201.284 179.657 203 189.214 203 193L203 240C203 244.087 201.061 255.167 204.603 257.972C209.849 262.127 227.402 259 234 259L296 259C303.222 259 315.193 256.696 321.852 259.603C326.013 261.42 325 267.326 325 271L325 300C324.998 304.232 325.619 309.077 320.941 310.968C307.365 316.456 288.386 313.937 274 315.093C245.71 317.367 213.58 322.535 187 332.702C174.149 337.618 148.59 345.008 151.144 363C153.189 377.4 175.715 383.265 187 387.463C216.638 398.488 250.542 402.824 282 405.83C292.644 406.847 313.87 402.854 322.682 409.858C326.03 412.519 325 418.238 325 422L325 456L325 548C325 554.717 321.675 574.377 326.742 579.243C329.445 581.839 335.603 580.017 339 580.001C350.666 579.945 362.334 580 374 580C383 580 392.001 579.958 401 580.001C404.006 580.015 408.88 581.327 411.566 579.732C414.859 577.776 413.999 572.198 414 569L414 539L414 448C414 438.89 410.402 420.067 415.028 412.144C419.347 404.747 440.498 406.003 448 406C475.638 405.989 507.414 400.722 534 393.366C548.94 389.232 565.504 384.448 578.285 375.381C584.833 370.735 590.723 363.481 587.062 355C582.203 343.745 565.94 336.953 555 333.704C525.713 325.008 492.824 315.382 462 315.004C450.076 314.857 437.819 314.184 426 312.575C421.211 311.923 415.098 311.853 414.148 305.981C412.456 295.524 414 283.597 414 273C414 269.538 412.865 263.423 415.603 260.742C419.885 256.551 433.392 259 439 259L503 259C509.974 259 528.873 262.347 534.397 257.972C538.046 255.082 536 243.235 536 239L536 198C536 192.271 537.319 184.66 535.682 179.148C534.105 173.835 522.288 176 518 176L461 176L271 176L223 176C218.487 176 208.294 174.105 204.603 177.028z"/>
<path style="fill:#fcfefd; stroke:none;" d="M204 179L204 258L262 258L306 258C310.988 258 319.424 256.406 323.852 259.028C327.879 261.412 327 267.034 327 271L327 301C326.993 304.96 327.398 310.456 323.606 312.976C314.08 319.307 292.18 315.064 281 316.104C250.088 318.98 217.412 324.271 188 334.356C177.284 338.03 148.425 346.833 152.304 362.83C155.371 375.48 176.252 382.372 187 385.485C220.358 395.148 253.406 400.465 288 404.714C297.171 405.84 317.591 400.931 324.486 408.318C327.753 411.818 327 417.616 327 422L327 453L327 538C327 550.711 324.395 566.804 328 579L370 578L411 579C414.605 566.804 412 550.711 412 538L412 453L412 422C412 417.616 411.247 411.818 414.514 408.318C421.581 400.747 442.602 405.931 452 404.711C486.487 400.231 519.795 395.073 553 385.232C563.753 382.046 583.631 375.473 586.696 362.83C590.578 346.816 561.594 337.983 551 334.356C521.035 324.096 488.42 319.537 457 316.174C445.761 314.97 427.042 318.873 417.044 313.682C407.339 308.643 412 281.455 412 272C412 267.843 410.904 261.541 415.148 259.028C419.576 256.406 428.012 258 433 258L477 258L535 258L535 179L204 179z"/>
<path style="fill:#b5dacf; stroke:none;" d="M412 377L327 377L327 334C327 330.181 328.543 321.776 325.258 319.014C319.551 314.215 299.079 318.12 292 318.831C261.111 321.931 229.853 325.345 200 334.325C190.982 337.038 169.876 344.204 170.167 356C170.407 365.684 182.498 370.818 190 373.944C212.094 383.153 236.674 386.266 260 390.116C291.431 395.304 324.128 395 356 395C401.457 395 445.196 393.756 490 387.3C508.211 384.676 525.519 381.96 543 375.834C551.397 372.891 561.592 369.9 566.736 361.985C576.329 347.226 549.117 337.368 539 334.325C508.605 325.182 477.358 322.467 446 318.715C439.896 317.984 417.26 314.363 413.179 319.6C410.519 323.013 412 330.916 412 335L412 377z"/>
<path style="fill:#83c3b0; stroke:none;" d="M325 319C284.693 319 241.832 324.703 203 335.375C192.815 338.174 163.247 348.18 175.533 362.896C180.913 369.339 190.308 372.243 198 374.745C216.008 380.604 234.255 384.042 253 386.285C305.606 392.58 357.83 395.288 411 393.985C427.364 393.584 443.596 390.192 460 389.996C487.323 389.669 518.242 382.479 544 373.796C551.579 371.24 569.015 364.885 566.246 354.001C563.496 343.189 544.502 337.355 535 335.134C506.226 328.411 478.328 324.764 449 321.829C440.318 320.961 424.549 315.553 416.318 319.603C412.363 321.549 414 330.395 414 334L414 365C414 368.361 414.958 373.75 412.397 376.411C409.06 379.878 401.392 378.999 397 379.576C380.956 381.683 361.076 381.611 345 379.715C340.285 379.158 328.957 380.081 326.028 375.682C323.55 371.961 325 364.289 325 360L325 319z"/>
<path style="fill:#53af95; stroke:none;" d="M173 356C180.066 367.145 189.092 369.671 201 373.87C219.574 380.42 239.354 383.736 259 385.09C264.933 385.498 270.21 388.094 276 388.815C283.907 389.799 292.055 388.545 300 389.09C310.401 389.802 320.661 392.507 331 392.961C362.475 394.341 393.999 392.597 425 390.093C437.534 389.081 450.558 390.364 463 388.815C468.131 388.176 472.792 385.693 478 385.171C498.427 383.12 518.602 380.796 538 373.87C549.918 369.614 558.929 367.154 566 356C556.494 341.123 541.108 338.889 525.039 334.6C497.356 327.212 469.692 324.875 441 322.91C432.14 322.304 423.939 320 415 320L415 360C415 364.568 416.545 372.715 413.972 376.697C411.441 380.614 401.308 381.346 397 381.935C380.34 384.214 359.479 385.218 343 381.407C338.327 380.326 327.912 381.076 325.028 376.686C322.561 372.931 324 365.314 324 361L324 320C315.141 320 306.826 322.306 298 322.91C269.304 324.876 241.671 327.206 213.961 334.6C197.999 338.859 182.459 341.195 173 356z"/>
</svg>
