
<svg
  
   viewBox="0 0 105 105"
   version="1.1"
   id="svg1"
>

  <defs
     id="defs1" />
  <g
     inkscape:label="Слой 1"
     inkscape:groupmode="layer"
     id="layer1"
     transform="translate(-110.41582,-32.20319)">
    <path
       style="opacity:1;fill:#ffffff;fill-opacity:1;stroke:none;stroke-width:1.01644;stroke-opacity:1"
       id="path92"
       d="m 196.76797,120.59308 c -1.05174,1.22311 -2.32569,2.21979 -3.5836,3.21639 -2.93206,2.22114 -6.03279,4.23092 -9.287,5.97336 -0.83222,0.44562 -1.68358,0.85731 -2.52535,1.28596 -4.59763,2.19434 -9.48074,3.87549 -14.61197,4.64142 -1.07381,0.16026 -2.16313,0.24334 -3.2447,0.36502 -4.46546,0.32861 -9.00317,-0.11262 -13.44487,-1.25783 -3.02812,-0.78072 -3.76077,-1.15384 -6.7061,-2.27632 -4.49262,-1.91853 -8.77464,-4.42801 -12.54776,-7.653 -2.47812,-2.11813 -3.163,-3.00462 -5.37458,-5.40374 -3.30964,-3.87019 -6.24862,-8.07226 -8.50562,-12.61761 -1.47857,-2.97769 -1.70783,-3.85547 -2.85061,-6.951089 -1.54218,-4.736173 -2.50099,-9.6236 -2.636,-14.512745 -0.0871,-3.152727 0.0956,-4.28453 0.35557,-7.401202 0.60621,-5.052193 1.88929,-9.954322 3.84577,-14.548464 1.29446,-3.039544 1.93428,-4.019893 3.52508,-6.894913 2.60929,-4.351928 5.69142,-8.39171 9.4745,-11.740449 2.38645,-2.112444 3.25824,-2.59006 5.87777,-4.382286 4.04643,-2.552506 8.44769,-4.541273 13.15931,-5.712432 3.01114,-0.748461 4.09376,-0.804715 7.18498,-1.214542 5.99359,-0.536699 12.12912,-0.331719 18.16371,0.925384 1.1632,0.242235 2.31468,0.563078 3.47203,0.844613 4.57443,1.401031 8.97243,3.46689 13.04106,6.133222 2.52845,1.657009 3.30972,2.373945 5.66417,4.260192 3.42052,2.909095 6.54039,6.173124 9.23734,9.773043 1.6788,2.240851 2.0263,2.901104 3.50213,5.252463 2.02573,3.401496 3.62301,7.020339 4.71271,10.778834 0.67683,2.334528 0.77548,3.110195 1.23989,5.471507 0.7901,4.677653 0.5622,9.386616 -0.13885,13.947336 -0.144,0.939531 -0.3334,1.868093 -0.5001,2.80214 -0.98192,4.603588 -2.25797,9.156408 -4.10454,13.430338 -0.36209,0.83825 -0.77692,1.64915 -1.16537,2.47372 -1.69046,3.2705 -3.82143,6.2761 -6.24956,8.99893 -1.42249,1.59506 -2.05074,2.13743 -3.58353,3.60266 -2.27731,2.11856 -4.79277,3.94993 -7.32046,5.75663 -0.56314,0.40258 0.0623,1.25263 0.62552,0.85007 v 0 c 2.56249,-1.83199 5.11183,-3.68999 7.41975,-5.83889 1.56465,-1.49658 2.19876,-2.04425 3.65115,-3.67469 2.4794,-2.7835 4.65362,-5.85651 6.37801,-9.19981 0.39651,-0.84323 0.81958,-1.67266 1.18949,-2.52969 1.87029,-4.33302 3.1633,-8.948061 4.15681,-13.615109 0.16917,-0.949838 0.36105,-1.894192 0.50743,-2.849577 0.71561,-4.670044 0.94002,-9.491072 0.12716,-14.279722 -0.47656,-2.415008 -0.57779,-3.207869 -1.27231,-5.596204 -1.11833,-3.845676 -2.75511,-7.54844 -4.82962,-11.028674 -1.50595,-2.396506 -1.86138,-3.07073 -3.57421,-5.354355 -2.75021,-3.666708 -5.93066,-6.991529 -9.41751,-9.954074 -2.40626,-1.92544 -3.19814,-2.652073 -5.78344,-4.343639 -4.16454,-2.724833 -8.66592,-4.834053 -13.34777,-6.26051 -3.19663,-0.775465 -3.91401,-1.03157 -7.16542,-1.488258 -4.95801,-0.696394 -9.94612,-0.756245 -14.84149,-0.302416 -3.15239,0.42007 -4.25562,0.477935 -7.32739,1.244603 -4.8053,1.199382 -9.29485,3.229711 -13.4214,5.836361 -2.67304,1.832009 -3.56043,2.318702 -5.99565,4.478471 -3.84754,3.41235 -6.98533,7.52434 -9.63926,11.955765 -1.61825,2.928208 -2.26387,3.917081 -3.58056,7.014392 -1.98913,4.679224 -3.29217,9.671771 -3.90638,14.816498 -0.26365,3.186568 -0.44854,4.330978 -0.35662,7.556274 0.14219,4.990521 1.12299,9.97871 2.70059,14.812044 1.1704,3.16329 1.40308,4.05389 2.91669,7.09675 2.30189,4.62759 5.29594,8.90634 8.66908,12.84582 2.27071,2.45902 2.96396,3.35687 5.50965,5.52828 3.86136,3.29362 8.24085,5.85766 12.836,7.81606 3.0111,1.14469 3.76299,1.52661 6.85877,2.32172 4.55048,1.16879 9.19861,1.6153 13.77199,1.27507 1.10476,-0.12515 2.21746,-0.21094 3.31427,-0.37545 5.21959,-0.78283 10.18764,-2.49304 14.86446,-4.7271 0.85321,-0.43477 1.7161,-0.85242 2.55963,-1.30435 3.29576,-1.76565 6.43596,-3.80209 9.40514,-6.05276 1.30734,-1.03664 2.62956,-2.07532 3.71972,-3.34986 0.44128,-0.53442 -0.35635,-1.22398 -0.79758,-0.68955 z" />
    <path
       style="opacity:1;fill:#ffffff;fill-opacity:1;stroke:none;stroke-width:0.984105;stroke-opacity:1"
       id="path93"
       d="m 111.5602,86.509222 c 0.75345,0.05137 1.50874,0.06286 2.26317,0.09262 1.58837,0.0695 3.17782,0.106489 4.76728,0.138315 2.07225,0.03852 4.14483,0.05448 6.21734,0.06985 2.22516,0.01595 4.45037,0.02372 6.67558,0.03029 2.9794,0.02485 5.9581,0.09898 8.93711,0.151352 3.7526,0.04773 7.50465,0.131901 11.25733,0.171505 4.24429,0.02796 8.48877,0.04292 12.73315,0.0291 4.63025,0.0021 9.25873,-0.105705 13.88644,-0.250276 3.84412,-0.106633 7.68635,-0.27366 11.52575,-0.49395 2.92178,-0.162939 5.84058,-0.375063 8.76097,-0.560876 2.32243,-0.15286 4.64712,-0.261346 6.97274,-0.346812 1.80347,-0.06517 3.60752,-0.111031 5.4116,-0.153818 1.09562,-0.02606 2.19132,-0.0474 3.28708,-0.06612 0.68824,-0.01174 0.67199,-1.006479 -0.0163,-0.994727 v 0 c -1.09786,0.01874 -2.19566,0.04015 -3.29338,0.06625 -1.80823,0.04289 -3.61641,0.08886 -5.42402,0.154192 -2.33413,0.0858 -4.66733,0.194687 -6.99824,0.348094 -2.91841,0.185697 -5.83525,0.397656 -8.75506,0.560519 -3.83113,0.219863 -7.66507,0.386439 -11.5009,0.492848 -4.61885,0.1443 -9.23845,0.251981 -13.85982,0.249817 -4.23999,0.01382 -8.48008,-0.0011 -12.71999,-0.02905 -3.75046,-0.03955 -7.50026,-0.123748 -11.25063,-0.171415 -2.98366,-0.05245 -5.96699,-0.126737 -8.95105,-0.151494 -2.22378,-0.0066 -4.44759,-0.01432 -6.67133,-0.03027 -2.06852,-0.01535 -4.13708,-0.03126 -6.20534,-0.06969 -1.5833,-0.0317 -3.16661,-0.06852 -4.74884,-0.137767 -0.76694,-0.03018 -1.53457,-0.04363 -2.30067,-0.09337 -0.68835,0 -0.68835,0.994867 0,0.994867 z" />
    <path
       style="opacity:1;fill:#ffffff;fill-opacity:1;stroke:none;stroke-width:0.987863;stroke-opacity:1"
       id="path97"
       d="m 156.24378,55.19246 c 0.21113,-0.426856 0.60923,-0.711246 0.97402,-0.994599 0.65468,-0.553517 1.44737,-0.790636 2.26256,-0.978048 0.97119,-0.215982 1.95133,-0.297042 2.93983,-0.200202 0.98709,0.136209 1.69837,0.53191 2.46899,1.144988 0.72666,0.59576 1.29063,1.341418 1.67904,2.199275 0.36483,0.991089 -0.0214,1.908988 -0.42713,2.814936 -0.50046,1.049204 -1.16989,1.995636 -1.91782,2.875228 -0.77342,0.882932 -1.74529,1.536059 -2.74144,2.129497 -1.06935,0.619467 -2.21576,1.076378 -3.38727,1.451379 -0.91215,0.286612 -1.85488,0.424555 -2.80778,0.423947 -0.0582,0.01084 -0.79125,-0.03583 -0.79632,-0.132955 -0.004,-0.08203 0.065,0.02201 0.14949,0.131408 0.16033,-0.07582 -0.0238,0.15436 0.0307,0.167665 0.0424,0.01035 0.071,-0.05227 0.11067,-0.07078 0.0509,-0.02377 0.16271,-0.05132 0.20708,-0.06358 0.63193,-0.04378 1.26398,0.0722 1.88323,0.186679 1.06317,0.248503 2.12444,0.502102 3.19397,0.721504 1.13875,0.217221 2.28694,0.384761 3.44318,0.463792 1.07206,0.04405 2.14396,-0.01595 3.21197,-0.106493 0.69119,-0.05868 0.60938,-1.050072 -0.0818,-0.991399 v 0 c -1.01908,0.08661 -2.04177,0.144839 -3.06481,0.105237 -1.11298,-0.0746 -2.21786,-0.238831 -3.31409,-0.446263 -1.07599,-0.220648 -2.14322,-0.477656 -3.21332,-0.725269 -0.77016,-0.141062 -1.56667,-0.29221 -2.34773,-0.158363 -0.38908,0.129169 -0.85286,0.341997 -0.98127,0.78567 -0.0327,0.11301 -0.023,0.234404 -0.0343,0.351608 0.0463,0.11008 0.0711,0.232272 0.13894,0.330242 0.31235,0.451441 0.99686,0.417779 1.46599,0.446155 1.05268,-0.0036 2.09467,-0.15132 3.10215,-0.470272 1.24134,-0.399099 2.45632,-0.883949 3.58889,-1.54249 1.08796,-0.650404 2.1452,-1.369953 2.98741,-2.337909 0.80749,-0.953174 1.53074,-1.977842 2.06847,-3.11501 0.55519,-1.255022 0.9218,-2.289716 0.42163,-3.64555 -0.46549,-0.995456 -1.11028,-1.871844 -1.96511,-2.562962 -0.95664,-0.750277 -1.76629,-1.179141 -2.98008,-1.350456 -1.09293,-0.10092 -2.17714,-0.02156 -3.25036,0.221004 -0.95084,0.223096 -1.87538,0.516529 -2.6409,1.158747 -0.45604,0.356074 -0.9386,0.725963 -1.20839,1.256356 -0.36761,0.596546 0.4642,1.123822 0.83181,0.527275 z" />
    <path
       style="opacity:1;fill:#ffffff;fill-opacity:1;stroke:none;stroke-width:0.987863;stroke-opacity:1"
       id="path98"
       d="m 172.2141,67.886978 c 0.54133,-0.395464 0.99015,-0.899262 1.46842,-1.366755 0.6462,-0.617178 1.27534,-1.249428 1.87025,-1.917603 0.31712,-0.375638 0.16258,-0.190196 0.46385,-0.556115 0.44452,-0.540013 -0.30845,-1.177607 -0.75298,-0.637591 v 0 c -0.28808,0.350036 -0.14178,0.174326 -0.43897,0.527044 -0.57957,0.651324 -1.1934,1.266604 -1.82306,1.868148 -0.4643,0.454408 -0.89984,0.943635 -1.42589,1.327515 -0.52662,0.457816 0.11174,1.213173 0.63838,0.755357 z" />
    <path
       style="opacity:1;fill:#ffffff;fill-opacity:1;stroke:none;stroke-width:0.987863;stroke-opacity:1"
       id="path99"
       d="m 171.11029,64.004989 c 0.38446,0.0903 0.72887,0.284526 1.06425,0.487961 0.47286,0.304164 0.92689,0.637778 1.37449,0.978706 0.4128,0.350008 0.83084,0.69389 1.24306,1.044592 0.3908,0.317915 0.75817,0.663308 1.13358,0.999231 0.0538,0.05055 0.10741,0.101104 0.16111,0.151656 0.50871,0.478212 1.17551,-0.251437 0.6668,-0.729648 v 0 c -0.0597,-0.0561 -0.1195,-0.1122 -0.17925,-0.168301 -0.38183,-0.341073 -0.75496,-0.692431 -1.15221,-1.015458 -0.42596,-0.36171 -0.85646,-0.718135 -1.28417,-1.077684 -0.47545,-0.361884 -0.95771,-0.716061 -1.46087,-1.03748 -0.42566,-0.256955 -0.86667,-0.492985 -1.354,-0.604748 -0.6771,-0.152607 -0.88989,0.818569 -0.21279,0.971173 z" />
    <path
       style="opacity:1;fill:#ffffff;fill-opacity:1;stroke:none;stroke-width:0.987863;stroke-opacity:1"
       id="path105"
       d="m 161.99528,100.24206 c -0.43132,-0.002 -0.86229,-0.002 -1.29323,0.0175 -0.4372,0.0284 -0.87243,0.0966 -1.28733,0.24355 -0.31088,0.11008 -0.40829,0.17082 -0.70545,0.31992 -0.66554,0.38149 -1.2826,0.85869 -1.80612,1.42549 -0.11408,0.12351 -0.21879,0.25559 -0.32819,0.38338 -0.54628,0.71561 -0.97656,1.52678 -1.28447,2.37653 -0.0721,0.19884 -0.1301,0.40261 -0.19515,0.60391 -0.39707,1.27942 -0.54648,2.60812 -0.62896,3.94044 -0.0464,0.88821 0.0145,1.77811 0.19677,2.64844 0.11274,0.53836 0.17102,0.68736 0.33039,1.20803 0.24728,0.74295 0.57274,1.45918 0.99515,2.11706 0.26392,0.41106 0.3482,0.49623 0.64949,0.87169 0.55118,0.63229 1.22537,1.14261 1.98228,1.4947 0.14345,0.0668 0.29239,0.12056 0.43859,0.18083 0.74948,0.24764 1.55281,0.32464 2.33755,0.24661 0.14979,-0.0149 0.29783,-0.0445 0.44674,-0.0666 0.94087,-0.19209 1.68152,-0.80114 2.37483,-1.43688 0.69732,-0.65434 1.26531,-1.42556 1.75542,-2.24664 0.4904,-0.84608 0.79233,-1.77584 1.02174,-2.7237 0.23016,-1.00442 0.25415,-2.03378 0.21877,-3.05903 -0.033,-0.93415 -0.18615,-1.85451 -0.42525,-2.75542 -0.21566,-0.75996 -0.55558,-1.46864 -0.95961,-2.14159 -0.33819,-0.57143 -0.72783,-1.10829 -1.11609,-1.64511 -0.37433,-0.51361 -0.826,-0.95247 -1.31664,-1.34907 -0.21552,-0.17215 -0.44974,-0.31645 -0.6843,-0.45953 -0.59488,-0.36172 -1.09926,0.49155 -0.50438,0.85327 v 0 c 0.1981,0.12002 0.39622,0.24064 0.5784,0.38515 0.42355,0.34022 0.81293,0.7167 1.136,1.15863 0.37192,0.51417 0.74596,1.02785 1.06988,1.57521 0.35738,0.59143 0.65755,1.21466 0.84989,1.88295 0.22205,0.82705 0.36027,1.67311 0.39182,2.53108 0.0337,0.93391 0.0157,1.87187 -0.19142,2.78752 -0.2035,0.85064 -0.47153,1.68561 -0.9088,2.44589 -0.43798,0.73994 -0.94949,1.43319 -1.57439,2.02345 -0.5465,0.50441 -1.12495,1.01704 -1.86363,1.1903 -0.11704,0.0189 -0.23324,0.0442 -0.35111,0.0567 -0.64184,0.0682 -1.30272,0.0152 -1.9196,-0.17624 -0.12021,-0.0484 -0.24272,-0.0911 -0.36063,-0.14497 -0.63494,-0.28977 -1.20271,-0.71123 -1.6667,-1.23723 -0.26322,-0.32471 -0.3388,-0.40075 -0.56983,-0.75732 -0.3816,-0.58899 -0.67466,-1.23147 -0.89779,-1.89799 -0.146,-0.47195 -0.19766,-0.602 -0.30173,-1.08993 -0.16874,-0.79107 -0.22504,-1.60028 -0.18281,-2.40825 0.0763,-1.24893 0.21237,-2.49477 0.58278,-3.69476 0.0564,-0.17732 0.10614,-0.35694 0.16904,-0.53198 0.2697,-0.75051 0.64392,-1.47023 1.12034,-2.10607 0.0922,-0.10908 0.18023,-0.22188 0.27653,-0.32722 0.4498,-0.49208 0.98169,-0.90665 1.55349,-1.24167 0.53482,-0.27409 0.99364,-0.43574 1.59931,-0.45967 0.41598,-0.0196 0.83205,-0.0183 1.24841,-0.0165 0.69361,0 0.69361,-0.99486 0,-0.99486 z" />
    <path
       style="opacity:1;fill:#ffffff;fill-opacity:1;stroke:none;stroke-width:0.987863;stroke-opacity:1"
       id="path106"
       d="m 174.89892,113.1724 c -0.54134,0.39547 -0.99015,0.89927 -1.46843,1.36676 -0.6462,0.61717 -1.27534,1.24943 -1.87025,1.9176 -0.31712,0.37564 -0.16258,0.1902 -0.46385,0.55612 -0.44452,0.54001 0.30845,1.1776 0.75298,0.63759 v 0 c 0.28808,-0.35004 0.14178,-0.17433 0.43897,-0.52705 0.57957,-0.65132 1.19341,-1.2666 1.82306,-1.86815 0.46431,-0.4544 0.89984,-0.94363 1.42589,-1.32751 0.52662,-0.45782 -0.11174,-1.21318 -0.63837,-0.75536 z" />
    <path
       style="opacity:1;fill:#ffffff;fill-opacity:1;stroke:none;stroke-width:0.987863;stroke-opacity:1"
       id="path107"
       d="m 176.00272,117.05439 c -0.38446,-0.0903 -0.72887,-0.28453 -1.06424,-0.48796 -0.47287,-0.30417 -0.9269,-0.63778 -1.37449,-0.97871 -0.41281,-0.35 -0.83085,-0.69388 -1.24306,-1.04458 -0.39081,-0.31792 -0.75818,-0.66332 -1.13359,-0.99924 -0.0538,-0.0505 -0.10741,-0.10111 -0.16111,-0.15165 -0.50871,-0.47822 -1.17551,0.25143 -0.6668,0.72964 v 0 c 0.0597,0.0561 0.1195,0.1122 0.17925,0.1683 0.38183,0.34108 0.75496,0.69244 1.15221,1.01546 0.42596,0.36171 0.85646,0.71813 1.28418,1.07769 0.47544,0.36188 0.9577,0.71605 1.46087,1.03747 0.42565,0.25696 0.86666,0.49299 1.354,0.60475 0.67709,0.15261 0.88988,-0.81856 0.21278,-0.97117 z" />
    <path
       style="opacity:0.2;fill:#4cff3c;fill-opacity:1;fill-rule:nonzero;stroke:none;stroke-width:0.499999;stroke-linejoin:round;stroke-dasharray:none;stroke-dashoffset:0;stroke-opacity:1;paint-order:stroke fill markers"
       d="m 148.43125,86.055556 c -3.6744,-0.05855 -12.27667,-0.170492 -19.11614,-0.248764 -12.15683,-0.13912 -16.89569,-0.235905 -17.49558,-0.35732 -0.28998,-0.05869 -0.29763,-0.103663 -0.29699,-1.74444 0.003,-7.758702 2.27482,-16.961291 5.85327,-23.710762 3.89877,-7.353623 7.94665,-12.468421 13.19607,-16.674179 2.63986,-2.115021 7.86797,-5.182478 11.1125,-6.519971 8.11845,-3.346672 18.38372,-4.347279 28.575,-2.785353 4.70093,0.720471 8.98978,2.0643 13.4276,4.207272 3.75409,1.812805 6.63814,3.646561 10.11373,6.430578 9.69603,7.766706 16.58017,17.967238 19.23727,28.504674 0.80947,3.210189 1.27421,6.665957 1.27441,9.476499 1.1e-4,1.484212 -0.0105,1.541835 -0.29755,1.618766 -0.16371,0.04387 -1.25015,0.08086 -2.41432,0.0822 -3.35048,0.0038 -8.67195,0.236429 -16.66875,0.728538 -12.57797,0.774028 -18.38422,0.970507 -30.8901,1.045308 -4.91133,0.02937 -11.93602,0.0055 -15.61042,-0.05304 z m 25.83015,-18.928876 1.02546,-0.936477 0.31686,0.242398 c 0.17427,0.133318 0.64197,0.525172 1.03932,0.870784 0.79165,0.688557 0.90599,0.728173 1.21366,0.420499 0.37949,-0.379497 0.2276,-0.682712 -0.78394,-1.564923 l -0.99182,-0.865015 0.59495,-0.669878 c 0.60717,-0.683638 0.71832,-1.013917 0.43619,-1.296048 -0.30736,-0.307364 -0.6828,-0.155768 -1.2882,0.520158 l -0.60807,0.678907 -1.03591,-0.676254 c -1.56009,-1.018428 -2.46532,-1.15149 -2.46532,-0.362376 0,0.348205 0.1765,0.528051 0.66146,0.674024 0.1819,0.05475 0.70076,0.34481 1.15301,0.644578 l 0.82228,0.545026 -0.98764,0.995113 c -0.98664,0.994101 -1.12772,1.259295 -0.8289,1.558116 0.32043,0.320429 0.72084,0.139858 1.72661,-0.778632 z m -6.64786,0.299191 c 0.57514,-0.08638 0.59532,-0.105109 0.59532,-0.552434 v -0.463021 l -2.11667,-0.01315 c -1.85254,-0.01151 -3.81753,-0.188479 -4.43177,-0.399116 -0.12186,-0.04179 0.21136,-0.28167 0.86352,-0.621639 2.73895,-1.427794 4.34939,-3.104589 5.65255,-5.885449 0.92087,-1.965092 0.83301,-3.183337 -0.34908,-4.839886 -0.679,-0.951531 -1.66971,-1.762619 -2.79867,-2.291265 -0.73463,-0.343995 -0.90186,-0.368842 -2.44228,-0.362871 -1.31519,0.0051 -1.8793,0.0696 -2.75617,0.315151 -1.84013,0.515289 -3.51989,1.835835 -3.43587,2.701115 0.0671,0.691518 0.52924,0.635479 1.28834,-0.156239 1.12095,-1.169127 2.7446,-1.753134 4.88692,-1.757756 1.69743,-0.0037 2.73888,0.464605 3.94609,1.774269 1.30867,1.419746 1.45223,2.410066 0.60905,4.201454 -1.30838,2.779712 -3.34082,4.626818 -6.54581,5.948923 l -1.17937,0.486508 -1.15165,-0.242279 c -1.48764,-0.312971 -2.35469,-0.3131 -2.93964,-5.29e-4 -0.90148,0.481856 -0.84744,1.467585 0.0948,1.729237 0.69438,0.192826 1.37623,0.176117 2.80111,-0.06864 1.17202,-0.201324 1.27711,-0.198479 2.63608,0.07133 0.77846,0.154559 1.80234,0.330665 2.27529,0.391345 1.05699,0.135615 3.69114,0.156027 4.49791,0.03485 z"
       id="path654" />
    <path
       style="opacity:0.2;fill:#ff3c3c;fill-opacity:1;fill-rule:nonzero;stroke:none;stroke-width:0.499999;stroke-linejoin:round;stroke-dasharray:none;stroke-dashoffset:0;stroke-opacity:1;paint-order:stroke fill markers"
       d="m 156.23646,135.86241 c -8.22906,-0.91747 -16.73032,-4.386 -23.58974,-9.62467 -5.06104,-3.86521 -10.47522,-10.23973 -14.17411,-16.68824 -3.82036,-6.66026 -6.27913,-14.647756 -6.86118,-22.288986 l -0.0543,-0.713441 1.33839,0.08921 c 0.73611,0.04906 6.27948,0.143563 12.31859,0.209998 6.03912,0.06643 14.93904,0.190886 19.77761,0.276561 5.23902,0.09276 13.23867,0.125272 19.7776,0.08037 13.39501,-0.09198 17.69267,-0.236712 30.1625,-1.015751 6.85742,-0.42841 10.67563,-0.606274 15.91515,-0.741373 l 3.47972,-0.08972 -0.0706,0.64734 c -0.0388,0.356037 -0.13386,1.272419 -0.21118,2.036403 -0.69962,6.913486 -3.15438,15.600729 -6.02135,21.309209 -1.69402,3.37299 -4.50222,7.31193 -7.18424,10.07699 -1.23551,1.27378 -1.2589,1.28984 -1.87738,1.28984 -0.34446,0 -0.93074,-0.0983 -1.30285,-0.2185 l -0.67656,-0.21851 -1.28993,1.24824 c -3.64727,3.52935 -10.88682,8.06343 -16.97973,10.63426 -4.68871,1.97835 -9.06097,3.15004 -13.81043,3.70095 -2.07955,0.24122 -6.50158,0.24113 -8.66592,-1.7e-4 z m 7.52363,-17.87292 c 0.90064,-0.40068 2.53695,-2.03598 3.22846,-3.22647 1.28337,-2.20946 1.69574,-5.60714 1.01955,-8.40052 -0.41893,-1.73059 -2.14398,-4.44478 -3.48561,-5.48423 l -0.77595,-0.60119 h -1.53915 c -1.5041,0 -1.55874,0.0105 -2.39906,0.46005 -2.47042,1.3217 -3.90497,4.0029 -4.26569,7.97267 -0.18475,2.03324 -0.0312,3.38156 0.5765,5.06091 0.45394,1.25453 1.42859,2.73567 2.20464,3.35031 1.62994,1.29094 3.73188,1.62673 5.43631,0.86847 z m 13.63776,-0.11126 c 0.29461,-0.35498 0.0825,-0.66019 -0.7455,-1.073 -0.44735,-0.22302 -1.03809,-0.5769 -1.31275,-0.78639 l -0.4994,-0.38091 1.03252,-0.96147 c 0.87948,-0.81896 1.02056,-1.00908 0.95187,-1.28275 -0.18633,-0.7424 -0.68724,-0.56832 -1.96473,0.68277 l -0.88962,0.87124 -0.30101,-0.26222 c -0.16555,-0.14422 -0.61099,-0.54297 -0.98986,-0.8861 -0.69741,-0.63161 -1.04695,-0.75338 -1.3352,-0.46513 -0.36305,0.36305 -0.16652,0.73745 0.82471,1.5711 l 0.98345,0.82711 -0.58658,0.67055 c -0.59198,0.67673 -0.71894,1.08513 -0.42783,1.37624 0.30039,0.30039 0.61462,0.157 1.25449,-0.57249 l 0.64142,-0.73124 0.56077,0.4124 c 1.41433,1.04011 2.45639,1.40823 2.80325,0.99029 z"
       id="path655" />
    <path
       style="opacity:0.2;fill:#ff3c3c;fill-opacity:1;fill-rule:nonzero;stroke:none;stroke-width:0.499999;stroke-linejoin:round;stroke-dasharray:none;stroke-dashoffset:0;stroke-opacity:1;paint-order:stroke fill markers"
       d="m 160.58651,117.09392 c -2.67456,-0.95575 -4.30867,-4.36667 -3.94475,-8.23397 0.43193,-4.58998 2.40915,-7.32146 5.46717,-7.55273 0.99112,-0.075 1.01062,-0.0703 1.58985,0.38099 1.09376,0.85214 2.49727,2.84735 2.99091,4.25185 0.65589,1.86612 0.68842,4.64595 0.0765,6.53623 -0.60656,1.8737 -2.22629,3.9308 -3.5844,4.5523 -0.62439,0.28574 -1.88937,0.31758 -2.59526,0.0653 z"
       id="path656" />
  </g>
</svg>
