
<svg
   width="144.52213mm"
   height="138.29517mm"
   viewBox="0 0 144.52213 138.29517"
   version="1.1"
   id="svg1"
   inkscape:export-filename="растровый.svg"
   inkscape:export-xdpi="96"
   inkscape:export-ydpi="96"
   xmlns:inkscape="http://www.inkscape.org/namespaces/inkscape"
   xmlns:sodipodi="http://sodipodi.sourceforge.net/DTD/sodipodi-0.dtd"
   xmlns="http://www.w3.org/2000/svg"
   xmlns:svg="http://www.w3.org/2000/svg">
  <sodipodi:namedview
     id="namedview1"
     pagecolor="#000000"
     bordercolor="#000000"
     borderopacity="0.25"
     inkscape:showpageshadow="2"
     inkscape:pageopacity="0.0"
     inkscape:pagecheckerboard="0"
     inkscape:deskcolor="#d1d1d1"
     inkscape:document-units="mm" />
  <defs
     id="defs1">
    <filter
       inkscape:collect="always"
       style="color-interpolation-filters:sRGB"
       id="filter86"
       x="-2.5903226"
       y="-0.077114493"
       width="6.1806452"
       height="1.154229">
      <feGaussianBlur
         inkscape:collect="always"
         stdDeviation="3.8334117"
         id="feGaussianBlur86" />
    </filter>
    <filter
       inkscape:collect="always"
       style="color-interpolation-filters:sRGB"
       id="filter87"
       x="-0.072946876"
       y="-0.07689735"
       width="1.1458938"
       height="1.1537947">
      <feGaussianBlur
         inkscape:collect="always"
         stdDeviation="3.8334117"
         id="feGaussianBlur87" />
    </filter>
  </defs>
  <g
     inkscape:label="Слой 1"
     inkscape:groupmode="layer"
     id="layer1"
     transform="translate(-90.162286,-31.948445)">
    <path
       style="opacity:0.751724;fill:#ffffff;fill-opacity:1;stroke:none;stroke-width:1;stroke-opacity:1;filter:url(#filter86)"
       id="path86"
       d="m 161.45428,42.268192 c 0.0318,0.630704 0.0369,0.845064 0.10322,1.535258 0.22475,2.339645 0.0816,0.370764 0.33811,3.197879 0.20997,2.314387 0.22217,2.893843 0.36451,5.331963 0.37983,7.427637 0.19098,14.868556 0.10349,22.301146 -0.059,5.036204 0.1142,10.071002 0.0115,15.106989 -0.0667,3.272724 -0.10411,3.468904 -0.27862,6.708291 -0.41879,6.205872 -0.66503,12.420072 -0.80199,18.637922 -0.0742,5.69299 -0.52497,11.36949 -0.86639,17.04994 -0.25895,4.5277 -0.21306,9.06342 -0.28945,13.59552 -0.0663,2.79944 -0.13551,5.59874 -0.17035,8.39878 -0.0184,1.74102 -0.0232,3.48213 -0.0245,5.22323 -0.0257,0.41161 0.0219,0.81925 0.0766,1.22583 0.0959,0.70057 1.08669,0.56489 0.99075,-0.13567 v 0 c -0.0505,-0.36153 -0.0944,-0.7228 -0.0674,-1.08939 0.001,-1.73721 0.006,-3.47444 0.0244,-5.21156 0.0348,-2.79858 0.10409,-5.59641 0.17029,-8.39439 0.0759,-4.51771 0.0304,-9.03901 0.28779,-13.55235 0.34216,-5.69311 0.79365,-11.38226 0.86795,-17.08792 0.13666,-6.20728 0.38267,-12.41089 0.80079,-18.606192 0.17525,-3.25855 0.21309,-3.460525 0.28,-6.750445 0.10242,-5.035938 -0.0699,-10.070663 -0.0115,-15.106816 0.0878,-7.455961 0.27676,-14.920272 -0.10512,-22.371238 -0.14427,-2.46761 -0.1556,-3.034625 -0.36816,-5.376971 -0.25661,-2.827681 -0.11331,-0.866296 -0.33583,-3.172835 -0.0622,-0.645107 -0.0693,-0.871001 -0.10016,-1.456971 0,-0.707107 -0.99999,-0.707107 -0.99999,0 z" />
    <path
       style="opacity:0.751724;fill:#ffffff;fill-opacity:1;stroke:none;stroke-width:1;stroke-opacity:1;filter:url(#filter87)"
       id="path85"
       d="m 143.56196,155.1392 c -3.16076,-0.63773 -6.16794,-1.97437 -8.92367,-3.62963 -1.03216,-0.61997 -2.01776,-1.31437 -3.02663,-1.97155 -7.38729,-5.24043 -13.88332,-11.6833 -19.15575,-19.05401 -1.18956,-1.66298 -2.24659,-3.41688 -3.36988,-5.12533 -0.95014,-1.76519 -1.98568,-3.48701 -2.85041,-5.29557 -3.39722,-7.10518 -5.42597,-15.05296 -5.832,-22.920785 -0.10306,-1.996961 0.006,-3.999232 0.009,-5.998847 0.20775,-1.988508 0.29597,-3.993158 0.62324,-5.965521 1.03737,-6.252035 3.23295,-12.344815 6.46323,-17.802053 3.07091,-5.187995 4.3257,-6.141476 8.34683,-10.632437 2.16442,-1.551006 4.21132,-3.280762 6.49325,-4.653018 10.22894,-6.151226 22.74466,-9.420016 34.61687,-9.909183 3.04848,-0.125605 6.10105,0.114901 9.15158,0.17235 6.75711,0.942803 10.85155,1.153051 17.30435,3.464372 2.88442,1.033169 5.66523,2.357919 8.37421,3.789264 5.07448,2.681206 10.16637,6.183569 14.46092,10.004388 1.98155,1.762969 3.72247,3.7791 5.58371,5.668648 1.48769,1.995514 3.11503,3.894161 4.46309,5.986542 3.681,5.713433 6.23589,12.194688 7.45389,18.877949 0.98395,5.398968 0.71862,6.962116 0.67999,12.407911 -0.59514,8.42204 -2.72526,16.18869 -6.64462,23.67338 -2.18105,4.16507 -3.41462,5.68484 -6.06869,9.49114 -4.19164,5.5042 -9.15765,10.2088 -14.98666,13.94507 -3.54855,2.27456 -4.95241,2.84173 -8.70121,4.6962 -4.92762,2.09459 -10.08346,3.5699 -15.35044,4.51289 -1.66011,0.29722 -3.32866,0.56688 -5.00848,0.71679 -4.33508,0.38689 -5.9407,0.147 -10.26689,-0.0841 -6.84399,-0.7863 -13.68374,-2.19395 -20.09207,-4.78053 -0.9443,-0.38115 -1.86249,-0.82404 -2.79374,-1.23606 -2.21585,-1.03186 -4.38083,-2.16371 -6.52925,-3.32743 -0.62178,-0.33673 -1.09799,0.54261 -0.47621,0.87934 v 0 c 2.17208,1.17609 4.36063,2.32051 6.60115,3.36271 0.9507,0.41989 1.88813,0.87119 2.85208,1.25968 6.50258,2.6207 13.44083,4.04961 20.3851,4.84089 4.42861,0.23305 6.02196,0.4742 10.46173,0.0754 1.70235,-0.15292 3.39326,-0.42668 5.07556,-0.72875 5.34831,-0.96034 10.58316,-2.46205 15.58508,-4.59459 3.80191,-1.88311 5.23182,-2.46194 8.83094,-4.7731 5.925,-3.80471 10.97403,-8.59236 15.23375,-14.19266 2.69425,-3.86847 3.94187,-5.406 6.1551,-9.64143 3.98031,-7.61708 6.14,-15.5208 6.73775,-24.08834 0.0327,-5.555 0.30142,-7.148564 -0.70932,-12.654897 -1.25049,-6.812474 -3.86286,-13.415143 -7.62319,-19.235645 -1.37541,-2.128951 -3.03492,-4.060299 -4.55237,-6.090449 -1.89281,-1.917737 -3.66382,-3.963847 -5.67841,-5.753211 -4.34957,-3.863292 -9.52768,-7.422298 -14.66672,-10.129094 -2.75962,-1.453526 -5.59326,-2.795924 -8.53063,-3.844787 -6.54776,-2.338049 -10.68623,-2.546403 -17.54106,-3.4973 -3.09024,-0.05581 -6.18269,-0.297005 -9.27071,-0.167439 -12.00061,0.503518 -24.77397,3.847918 -35.09986,10.092119 -2.34022,1.415161 -4.43666,3.198936 -6.65499,4.798403 -4.09579,4.585767 -5.36777,5.552705 -8.49417,10.848494 -3.28588,5.565944 -5.51383,11.776178 -6.56511,18.149122 -0.330964,2.006368 -0.419065,4.045313 -0.628599,6.06797 -0.0011,2.034948 -0.11,4.072689 -0.0034,6.104848 0.419463,7.998036 2.487749,16.069416 5.946069,23.290046 0.87856,1.83434 1.93025,3.58062 2.89538,5.37093 1.1385,1.72969 2.21001,3.50538 3.41549,5.18907 5.34042,7.45891 11.91949,13.97778 19.40013,19.27882 1.03195,0.67091 2.04002,1.38006 3.09585,2.01273 2.8721,1.72102 6.01128,3.10858 9.30935,3.74619 0.70421,0.064 0.79474,-0.93187 0.0905,-0.99589 z" />
    <path
       style="opacity:1;fill:#ffffff;fill-opacity:1;stroke:none;stroke-width:1;stroke-opacity:1"
       id="path83"
       d="m 143.56196,155.1392 c -3.16076,-0.63773 -6.16794,-1.97437 -8.92367,-3.62963 -1.03216,-0.61997 -2.01776,-1.31437 -3.02663,-1.97155 -7.38729,-5.24043 -13.88332,-11.6833 -19.15575,-19.05401 -1.18956,-1.66298 -2.24659,-3.41688 -3.36988,-5.12533 -0.95014,-1.76519 -1.98568,-3.48701 -2.85041,-5.29557 -3.39722,-7.10518 -5.42597,-15.05296 -5.832,-22.920785 -0.10306,-1.996961 0.006,-3.999232 0.009,-5.998847 0.20775,-1.988508 0.29597,-3.993158 0.62324,-5.965521 1.03737,-6.252035 3.23295,-12.344815 6.46323,-17.802053 3.07091,-5.187995 4.3257,-6.141476 8.34683,-10.632437 2.16442,-1.551006 4.21132,-3.280762 6.49325,-4.653018 10.22894,-6.151226 22.74466,-9.420016 34.61687,-9.909183 3.04848,-0.125605 6.10105,0.114901 9.15158,0.17235 6.75711,0.942803 10.85155,1.153051 17.30435,3.464372 2.88442,1.033169 5.66523,2.357919 8.37421,3.789264 5.07448,2.681206 10.16637,6.183569 14.46092,10.004388 1.98155,1.762969 3.72247,3.7791 5.58371,5.668648 1.48769,1.995514 3.11503,3.894161 4.46309,5.986542 3.681,5.713433 6.23589,12.194688 7.45389,18.877949 0.98395,5.398968 0.71862,6.962116 0.67999,12.407911 -0.59514,8.42204 -2.72526,16.18869 -6.64462,23.67338 -2.18105,4.16507 -3.41462,5.68484 -6.06869,9.49114 -4.19164,5.5042 -9.15765,10.2088 -14.98666,13.94507 -3.54855,2.27456 -4.95241,2.84173 -8.70121,4.6962 -4.92762,2.09459 -10.08346,3.5699 -15.35044,4.51289 -1.66011,0.29722 -3.32866,0.56688 -5.00848,0.71679 -4.33508,0.38689 -5.9407,0.147 -10.26689,-0.0841 -6.84399,-0.7863 -13.68374,-2.19395 -20.09207,-4.78053 -0.9443,-0.38115 -1.86249,-0.82404 -2.79374,-1.23606 -2.21585,-1.03186 -4.38083,-2.16371 -6.52925,-3.32743 -0.62178,-0.33673 -1.09799,0.54261 -0.47621,0.87934 v 0 c 2.17208,1.17609 4.36063,2.32051 6.60115,3.36271 0.9507,0.41989 1.88813,0.87119 2.85208,1.25968 6.50258,2.6207 13.44083,4.04961 20.3851,4.84089 4.42861,0.23305 6.02196,0.4742 10.46173,0.0754 1.70235,-0.15292 3.39326,-0.42668 5.07556,-0.72875 5.34831,-0.96034 10.58316,-2.46205 15.58508,-4.59459 3.80191,-1.88311 5.23182,-2.46194 8.83094,-4.7731 5.925,-3.80471 10.97403,-8.59236 15.23375,-14.19266 2.69425,-3.86847 3.94187,-5.406 6.1551,-9.64143 3.98031,-7.61708 6.14,-15.5208 6.73775,-24.08834 0.0327,-5.555 0.30142,-7.148564 -0.70932,-12.654897 -1.25049,-6.812474 -3.86286,-13.415143 -7.62319,-19.235645 -1.37541,-2.128951 -3.03492,-4.060299 -4.55237,-6.090449 -1.89281,-1.917737 -3.66382,-3.963847 -5.67841,-5.753211 -4.34957,-3.863292 -9.52768,-7.422298 -14.66672,-10.129094 -2.75962,-1.453526 -5.59326,-2.795924 -8.53063,-3.844787 -6.54776,-2.338049 -10.68623,-2.546403 -17.54106,-3.4973 -3.09024,-0.05581 -6.18269,-0.297005 -9.27071,-0.167439 -12.00061,0.503518 -24.77397,3.847918 -35.09986,10.092119 -2.34022,1.415161 -4.43666,3.198936 -6.65499,4.798403 -4.09579,4.585767 -5.36777,5.552705 -8.49417,10.848494 -3.28588,5.565944 -5.51383,11.776178 -6.56511,18.149122 -0.330964,2.006368 -0.419065,4.045313 -0.628599,6.06797 -0.0011,2.034948 -0.11,4.072689 -0.0034,6.104848 0.419463,7.998036 2.487749,16.069416 5.946069,23.290046 0.87856,1.83434 1.93025,3.58062 2.89538,5.37093 1.1385,1.72969 2.21001,3.50538 3.41549,5.18907 5.34042,7.45891 11.91949,13.97778 19.40013,19.27882 1.03195,0.67091 2.04002,1.38006 3.09585,2.01273 2.8721,1.72102 6.01128,3.10858 9.30935,3.74619 0.70421,0.064 0.79474,-0.93187 0.0905,-0.99589 z" />
    <path
       style="opacity:1;fill:#ffffff;fill-opacity:1;stroke:none;stroke-width:1;stroke-opacity:1"
       id="path84"
       d="m 161.45428,42.268192 c 0.0318,0.630704 0.0369,0.845064 0.10322,1.535258 0.22475,2.339645 0.0816,0.370764 0.33811,3.197879 0.20997,2.314387 0.22217,2.893843 0.36451,5.331963 0.37983,7.427637 0.19098,14.868556 0.10349,22.301146 -0.059,5.036204 0.1142,10.071002 0.0115,15.106989 -0.0667,3.272724 -0.10411,3.468904 -0.27862,6.708291 -0.41879,6.205872 -0.66503,12.420072 -0.80199,18.637922 -0.0742,5.69299 -0.52497,11.36949 -0.86639,17.04994 -0.25895,4.5277 -0.21306,9.06342 -0.28945,13.59552 -0.0663,2.79944 -0.13551,5.59874 -0.17035,8.39878 -0.0184,1.74102 -0.0232,3.48213 -0.0245,5.22323 -0.0257,0.41161 0.0219,0.81925 0.0766,1.22583 0.0959,0.70057 1.08669,0.56489 0.99075,-0.13567 v 0 c -0.0505,-0.36153 -0.0944,-0.7228 -0.0674,-1.08939 0.001,-1.73721 0.006,-3.47444 0.0244,-5.21156 0.0348,-2.79858 0.10409,-5.59641 0.17029,-8.39439 0.0759,-4.51771 0.0304,-9.03901 0.28779,-13.55235 0.34216,-5.69311 0.79365,-11.38226 0.86795,-17.08792 0.13666,-6.20728 0.38267,-12.41089 0.80079,-18.606192 0.17525,-3.25855 0.21309,-3.460525 0.28,-6.750445 0.10242,-5.035938 -0.0699,-10.070663 -0.0115,-15.106816 0.0878,-7.455961 0.27676,-14.920272 -0.10512,-22.371238 -0.14427,-2.46761 -0.1556,-3.034625 -0.36816,-5.376971 -0.25661,-2.827681 -0.11331,-0.866296 -0.33583,-3.172835 -0.0622,-0.645107 -0.0693,-0.871001 -0.10016,-1.456971 0,-0.707107 -0.99999,-0.707107 -0.99999,0 z" />
  </g>
</svg>
