
<svg
   width="107.04341mm"
   height="105.54192mm"
   viewBox="0 0 107.04341 105.54192"
   version="1.1"
   id="svg1"
   inkscape:export-filename="wheel.svg"
   inkscape:export-xdpi="96"
   inkscape:export-ydpi="96"
   xmlns:inkscape="http://www.inkscape.org/namespaces/inkscape"
   xmlns:sodipodi="http://sodipodi.sourceforge.net/DTD/sodipodi-0.dtd"
   xmlns="http://www.w3.org/2000/svg"
   xmlns:svg="http://www.w3.org/2000/svg">
  <sodipodi:namedview
     id="namedview1"
     pagecolor="#000000"
     bordercolor="#000000"
     borderopacity="0.25"
     inkscape:showpageshadow="2"
     inkscape:pageopacity="0.0"
     inkscape:pagecheckerboard="0"
     inkscape:deskcolor="#d1d1d1"
     inkscape:document-units="mm" />
  <defs
     id="defs1" />
  <g
     inkscape:label="Слой 1"
     inkscape:groupmode="layer"
     id="layer1"
     transform="translate(-110.34372,-32.20319)">
    <path
       style="opacity:0.751724;fill:#ffffff;fill-opacity:1;stroke:none;stroke-width:1.02857;stroke-opacity:1"
       id="path92"
       d="m 198.38944,121.04928 c -1.07148,1.22942 -2.36932,2.23125 -3.65084,3.23299 -2.98706,2.2326 -6.14597,4.25276 -9.46123,6.00419 -0.84783,0.44792 -1.71517,0.86173 -2.57273,1.2926 -4.68388,2.20566 -9.65861,3.89549 -14.88611,4.66537 -1.09395,0.16109 -2.20371,0.2446 -3.30557,0.36691 -4.54923,0.3303 -9.17208,-0.11321 -13.69711,-1.26433 -3.08493,-0.78475 -3.83132,-1.15979 -6.83191,-2.28806 -4.57691,-1.92844 -8.93927,-4.45087 -12.78318,-7.6925 -2.52461,-2.12907 -3.22234,-3.02013 -5.47541,-5.43163 -3.37173,-3.89017 -6.36585,-8.11393 -8.6652,-12.68274 -1.5063,-2.99305 -1.73986,-3.87536 -2.90408,-6.98696 -1.57112,-4.760618 -2.54791,-9.67327 -2.68546,-14.587649 -0.0887,-3.168999 0.0974,-4.306643 0.36225,-7.439401 0.61758,-5.078268 1.92473,-10.005698 3.91792,-14.623552 1.31874,-3.055232 1.97057,-4.04064 3.59121,-6.930499 2.65824,-4.374389 5.7982,-8.435021 9.65225,-11.801044 2.43122,-2.123347 3.31937,-2.603428 5.98804,-4.404904 4.12235,-2.56568 8.60618,-4.564711 13.4062,-5.741915 3.06763,-0.752324 4.17056,-0.808868 7.31978,-1.22081 6.10603,-0.539469 12.35667,-0.333432 18.50448,0.93016 1.18502,0.243485 2.35811,0.565984 3.53717,0.848972 4.66025,1.408262 9.14076,3.484783 13.28572,6.164877 2.57589,1.665561 3.37182,2.386197 5.77044,4.28218 3.48469,2.924109 6.6631,6.204984 9.41065,9.823483 1.71028,2.252417 2.06431,2.916078 3.56782,5.279572 2.06374,3.419052 3.69098,7.056573 4.80113,10.834466 0.68953,2.346577 0.79003,3.126248 1.26316,5.499747 0.80491,4.701795 0.57274,9.435062 -0.14146,14.019321 -0.1467,0.94438 -0.33966,1.877735 -0.50949,2.816603 -1.00033,4.627348 -2.30033,9.203663 -4.18154,13.499653 -0.36888,0.84258 -0.79149,1.65766 -1.18724,2.48649 -1.72217,3.28738 -3.89311,6.30849 -6.36681,9.04537 -1.44917,1.6033 -2.08921,2.14847 -3.65076,3.62126 -2.32003,2.12949 -4.88269,3.97031 -7.45779,5.78634 -0.57371,0.40466 0.0635,1.25909 0.63725,0.85446 v 0 c 2.61057,-1.84145 5.20774,-3.70904 7.55896,-5.86903 1.594,-1.5043 2.24001,-2.0548 3.71965,-3.69365 2.52591,-2.79787 4.74092,-5.88674 6.49766,-9.2473 0.40395,-0.84758 0.83496,-1.68129 1.21181,-2.54274 1.90538,-4.35539 3.22265,-8.994247 4.2348,-13.685383 0.17234,-0.95474 0.36782,-1.903968 0.51694,-2.864284 0.72904,-4.694147 0.95767,-9.540057 0.12955,-14.353423 -0.4855,-2.427472 -0.58863,-3.224425 -1.29618,-5.625087 -1.1393,-3.865524 -2.8068,-7.587399 -4.92023,-11.085595 -1.5342,-2.408875 -1.8963,-3.086579 -3.64126,-5.38199 -2.80181,-3.685633 -6.04193,-7.027614 -9.5942,-10.005449 -2.4514,-1.935378 -3.25814,-2.665761 -5.89195,-4.366058 -4.24267,-2.738896 -8.8285,-4.859002 -13.59818,-6.292822 -3.25661,-0.779467 -3.98744,-1.036894 -7.29985,-1.495939 -5.05103,-0.699988 -10.13272,-0.760148 -15.11993,-0.303977 -3.21154,0.422238 -4.33546,0.480402 -7.46486,1.251027 -4.89546,1.205572 -9.46924,3.24638 -13.67321,5.866484 -2.72318,1.841464 -3.62722,2.330669 -6.10813,4.501585 -3.91973,3.429962 -7.11638,7.563175 -9.8201,12.017471 -1.64861,2.943321 -2.30635,3.937298 -3.64774,7.050595 -2.02645,4.703375 -3.35393,9.721689 -3.97967,14.892969 -0.26859,3.203015 -0.45695,4.353331 -0.36331,7.595274 0.14486,5.016278 1.14406,10.030212 2.75126,14.888492 1.19236,3.17962 1.4294,4.07481 2.97141,7.13338 2.34508,4.65147 5.39529,8.95231 8.83171,12.91212 2.31333,2.47171 3.01958,3.37419 5.61302,5.55681 3.93381,3.31062 8.39546,5.88789 13.07683,7.8564 3.06758,1.1506 3.83359,1.53449 6.98744,2.3337 4.63586,1.17483 9.37119,1.62364 14.03037,1.28165 1.12549,-0.12579 2.25906,-0.21202 3.37645,-0.37738 5.31751,-0.78687 10.37877,-2.50591 15.14333,-4.7515 0.86923,-0.43701 1.7483,-0.85682 2.60766,-1.31108 3.35759,-1.77477 6.55671,-3.82172 9.58159,-6.084 1.33186,-1.04199 2.67889,-2.08603 3.7895,-3.36715 0.44956,-0.53718 -0.36303,-1.2303 -0.81254,-0.69311 z" />
    <path
       style="opacity:0.751724;fill:#ffffff;fill-opacity:1;stroke:none;stroke-width:1;stroke-opacity:1"
       id="path93"
       d="m 110.87406,85.677926 c 0.774,0.05163 1.54988,0.06318 2.32487,0.0931 1.63168,0.06986 3.26446,0.107038 4.89725,0.139028 2.12875,0.03872 4.25783,0.05476 6.38684,0.07021 2.28583,0.01603 4.5717,0.02384 6.85758,0.03045 3.06063,0.02498 6.12054,0.09949 9.18077,0.152133 3.8549,0.04798 7.70924,0.132582 11.56423,0.172391 4.36001,0.0281 8.7202,0.04314 13.08029,0.02925 4.75648,0.0021 9.51116,-0.106251 14.26503,-0.251568 3.94892,-0.107183 7.89589,-0.275072 11.83997,-0.496499 3.00143,-0.16378 5.99981,-0.376999 8.99982,-0.563771 2.38574,-0.153649 4.77381,-0.262695 7.16283,-0.348602 1.85264,-0.06551 3.70588,-0.111604 5.55915,-0.154612 1.12548,-0.02619 2.25106,-0.04765 3.37668,-0.06646 0.70701,-0.0118 0.69031,-1.011674 -0.0167,-0.999861 v 0 c -1.12779,0.01884 -2.25553,0.04036 -3.38318,0.06659 -1.85752,0.04311 -3.715,0.08932 -5.57189,0.154988 -2.39776,0.08624 -4.79457,0.195691 -7.18903,0.34989 -2.99798,0.186656 -5.99434,0.399709 -8.99374,0.563412 -3.93558,0.220998 -7.87405,0.388434 -11.81446,0.495392 -4.74476,0.145045 -9.49031,0.253281 -14.23767,0.251106 -4.35559,0.01389 -8.71127,-0.0011 -13.06678,-0.0292 -3.8527,-0.03975 -7.70474,-0.124386 -11.55735,-0.172299 -3.065,-0.05272 -6.12967,-0.127392 -9.19508,-0.152276 -2.28441,-0.0066 -4.56884,-0.01439 -6.85321,-0.03043 -2.12491,-0.01543 -4.24987,-0.03142 -6.37451,-0.07005 -1.62647,-0.03186 -3.25294,-0.06887 -4.87831,-0.138478 -0.78785,-0.03034 -1.57641,-0.04386 -2.3634,-0.09385 -0.70711,0 -0.70711,1.000001 0,1.000001 z" />
    <path
       style="opacity:0.751724;fill:#ffffff;fill-opacity:1;stroke:none;stroke-width:1;stroke-opacity:1"
       id="path97"
       d="m 157.13704,55.311113 c 0.21524,-0.429059 0.62109,-0.714917 0.99298,-0.999733 0.66742,-0.556374 1.47554,-0.794716 2.30659,-0.983096 0.99009,-0.217096 1.98931,-0.298575 2.99704,-0.201235 1.0063,0.136912 1.73143,0.534655 2.51704,1.150898 0.74081,0.598834 1.31575,1.348341 1.71172,2.210626 0.37193,0.996204 -0.0218,1.91884 -0.43544,2.829464 -0.5102,1.054619 -1.19266,2.005936 -1.95515,2.890068 -0.78847,0.887489 -1.77925,1.543987 -2.79479,2.140487 -1.09016,0.622665 -2.25888,1.081934 -3.45319,1.45887 -0.9299,0.288092 -1.89098,0.426747 -2.86242,0.426135 -0.0593,0.0109 -0.80665,-0.03601 -0.81182,-0.133641 -0.004,-0.08245 0.0663,0.02212 0.1524,0.132086 0.16345,-0.07621 -0.0243,0.155157 0.0313,0.168531 0.0432,0.0104 0.0724,-0.05254 0.11282,-0.07114 0.0519,-0.02389 0.16588,-0.05159 0.21111,-0.06391 0.64423,-0.04401 1.28858,0.07257 1.91988,0.187643 1.08386,0.249785 2.16579,0.504693 3.25613,0.725228 1.16091,0.218342 2.33145,0.386747 3.51019,0.466185 1.09292,0.04428 2.18568,-0.01603 3.27448,-0.107042 0.70464,-0.05898 0.62124,-1.055492 -0.0834,-0.996516 v 0 c -1.03892,0.08706 -2.08151,0.145587 -3.12446,0.10578 -1.13464,-0.07498 -2.26102,-0.240064 -3.37858,-0.448566 -1.09693,-0.221787 -2.18493,-0.480121 -3.27586,-0.729012 -0.78515,-0.14179 -1.59716,-0.293719 -2.39342,-0.159181 -0.39665,0.129836 -0.86946,0.343762 -1.00036,0.789725 -0.0333,0.113594 -0.0234,0.235614 -0.035,0.353423 0.0472,0.110648 0.0725,0.233471 0.14164,0.331946 0.31843,0.453771 1.01626,0.419936 1.49452,0.448458 1.07317,-0.0036 2.13543,-0.152101 3.16252,-0.472699 1.2655,-0.401159 2.50412,-0.888511 3.65874,-1.550451 1.10913,-0.653761 2.18694,-1.377024 3.04554,-2.349976 0.82321,-0.958093 1.56053,-1.98805 2.10873,-3.131087 0.56599,-1.261499 0.93974,-2.301534 0.42983,-3.664365 -0.47455,-1.000594 -1.13188,-1.881505 -2.00335,-2.57619 -0.97526,-0.75415 -1.80066,-1.185227 -3.03808,-1.357426 -1.11419,-0.101441 -2.2195,-0.02167 -3.31361,0.222144 -0.96935,0.224248 -1.91188,0.519195 -2.6923,1.164728 -0.46491,0.357912 -0.95686,0.72971 -1.2319,1.26284 -0.37477,0.599625 0.47323,1.129623 0.848,0.529997 z" />
    <path
       style="opacity:0.751724;fill:#ffffff;fill-opacity:1;stroke:none;stroke-width:1;stroke-opacity:1"
       id="path98"
       d="m 173.41816,68.07115 c 0.55187,-0.397505 1.00942,-0.903904 1.497,-1.373809 0.65878,-0.620364 1.30016,-1.255877 1.90665,-1.927501 0.32329,-0.377576 0.16574,-0.191177 0.47288,-0.558985 0.45317,-0.5428 -0.31446,-1.183685 -0.76764,-0.640881 v 0 c -0.29368,0.351842 -0.14454,0.175225 -0.44751,0.529764 -0.59085,0.654685 -1.21663,1.273141 -1.85854,1.87779 -0.47334,0.456753 -0.91735,0.948505 -1.45364,1.334366 -0.53687,0.460179 0.11392,1.219435 0.6508,0.759256 z" />
    <path
       style="opacity:0.751724;fill:#ffffff;fill-opacity:1;stroke:none;stroke-width:1;stroke-opacity:1"
       id="path99"
       d="m 172.29287,64.169125 c 0.39195,0.09077 0.74306,0.285994 1.08496,0.490479 0.48207,0.305734 0.94493,0.64107 1.40124,0.983758 0.42084,0.351814 0.84701,0.697471 1.26725,1.049983 0.39841,0.319556 0.77293,0.666732 1.15565,1.004388 0.0548,0.05081 0.1095,0.101626 0.16424,0.152439 0.51861,0.48068 1.19839,-0.252735 0.67978,-0.733414 v 0 c -0.0609,-0.05639 -0.12183,-0.112779 -0.18274,-0.169169 -0.38926,-0.342834 -0.76965,-0.696005 -1.17463,-1.020699 -0.43425,-0.363577 -0.87313,-0.721842 -1.30917,-1.083247 -0.4847,-0.363751 -0.97634,-0.719756 -1.4893,-1.042834 -0.43394,-0.258281 -0.88353,-0.49553 -1.38035,-0.607869 -0.69027,-0.153395 -0.9072,0.822793 -0.21693,0.976185 z" />
    <path
       style="opacity:0.751724;fill:#ffffff;fill-opacity:1;stroke:none;stroke-width:1;stroke-opacity:1"
       id="path105"
       d="m 163.00048,100.59322 c -0.43972,-0.002 -0.87908,-0.002 -1.3184,0.0176 -0.44571,0.0285 -0.88941,0.0971 -1.31239,0.24481 -0.31693,0.11065 -0.41623,0.1717 -0.71917,0.32157 -0.6785,0.38346 -1.30757,0.86312 -1.84127,1.43285 -0.1163,0.12415 -0.22305,0.25691 -0.33458,0.38536 -0.55691,0.7193 -0.99556,1.53466 -1.30947,2.38879 -0.0735,0.19987 -0.13263,0.40469 -0.19895,0.60703 -0.40479,1.28602 -0.55711,2.62158 -0.6412,3.96078 -0.0473,0.89279 0.0148,1.78729 0.2006,2.66211 0.11494,0.54114 0.17435,0.6909 0.33682,1.21426 0.2521,0.74679 0.58389,1.46671 1.01452,2.12799 0.26906,0.41318 0.35498,0.49879 0.66213,0.87619 0.56191,0.63555 1.24922,1.14851 2.02086,1.50241 0.14624,0.0671 0.29808,0.12118 0.44712,0.18177 0.76407,0.24891 1.58303,0.32631 2.38304,0.24788 0.15271,-0.015 0.30363,-0.0447 0.45544,-0.067 0.95918,-0.19308 1.71424,-0.80527 2.42104,-1.44429 0.7109,-0.65772 1.28994,-1.43292 1.78959,-2.25824 0.49994,-0.85044 0.80775,-1.785 1.04162,-2.73775 0.23464,-1.00961 0.2591,-2.04428 0.22303,-3.07482 -0.0336,-0.93897 -0.18977,-1.86408 -0.43353,-2.76964 -0.21985,-0.76389 -0.56639,-1.47622 -0.97828,-2.15265 -0.34477,-0.57438 -0.742,-1.11401 -1.13781,-1.6536 -0.38162,-0.51626 -0.84208,-0.95738 -1.34227,-1.35603 -0.21971,-0.17304 -0.45849,-0.31808 -0.69761,-0.4619 -0.60646,-0.36359 -1.12066,0.49408 -0.5142,0.85767 v 0 c 0.20196,0.12064 0.40393,0.24188 0.58966,0.38714 0.43179,0.34197 0.82875,0.7204 1.15811,1.16461 0.37915,0.51682 0.76047,1.03315 1.0907,1.58334 0.36433,0.59448 0.67034,1.22093 0.86643,1.89267 0.22637,0.83132 0.36728,1.68174 0.39944,2.54414 0.0344,0.93873 0.016,1.88153 -0.19514,2.80191 -0.20746,0.85503 -0.48071,1.69431 -0.92649,2.45851 -0.4465,0.74376 -0.96797,1.44059 -1.60503,2.03389 -0.55713,0.50702 -1.14684,1.02229 -1.8999,1.19645 -0.11931,0.019 -0.23778,0.0444 -0.35794,0.057 -0.65433,0.0685 -1.32807,0.0153 -1.95696,-0.17715 -0.12255,-0.0486 -0.24744,-0.0916 -0.36765,-0.14572 -0.64729,-0.29126 -1.22611,-0.7149 -1.69913,-1.24361 -0.26834,-0.32639 -0.3454,-0.40282 -0.58092,-0.76123 -0.38903,-0.59203 -0.68779,-1.23783 -0.91526,-1.90779 -0.14884,-0.47438 -0.20151,-0.6051 -0.30761,-1.09555 -0.17202,-0.79516 -0.22941,-1.60854 -0.18636,-2.42068 0.0778,-1.25538 0.2165,-2.50765 0.59412,-3.71383 0.0575,-0.17824 0.1082,-0.35878 0.17233,-0.53473 0.27495,-0.75438 0.65645,-1.47782 1.14214,-2.11694 0.094,-0.10964 0.18374,-0.22302 0.28191,-0.32891 0.45856,-0.49462 1.0008,-0.91133 1.58373,-1.24807 0.54522,-0.27551 1.01297,-0.43799 1.63043,-0.46205 0.42408,-0.0197 0.84824,-0.0184 1.27271,-0.0166 0.7071,0 0.7071,-1 0,-1 z" />
    <path
       style="opacity:0.751724;fill:#ffffff;fill-opacity:1;stroke:none;stroke-width:1;stroke-opacity:1"
       id="path106"
       d="m 176.15523,113.5903 c -0.55187,0.39751 -1.00942,0.90391 -1.497,1.37381 -0.65878,0.62036 -1.30016,1.25588 -1.90665,1.9275 -0.32329,0.37758 -0.16574,0.19118 -0.47288,0.55899 -0.45317,0.5428 0.31446,1.18368 0.76764,0.64088 v 0 c 0.29368,-0.35184 0.14454,-0.17523 0.44751,-0.52977 0.59085,-0.65468 1.21663,-1.27314 1.85854,-1.87779 0.47334,-0.45675 0.91735,-0.9485 1.45364,-1.33436 0.53687,-0.46018 -0.11392,-1.21944 -0.6508,-0.75926 z" />
    <path
       style="opacity:0.751724;fill:#ffffff;fill-opacity:1;stroke:none;stroke-width:1;stroke-opacity:1"
       id="path107"
       d="m 177.28052,117.49233 c -0.39195,-0.0908 -0.74306,-0.286 -1.08496,-0.49048 -0.48207,-0.30574 -0.94493,-0.64107 -1.40124,-0.98376 -0.42084,-0.35181 -0.84701,-0.69747 -1.26725,-1.04998 -0.39841,-0.31956 -0.77293,-0.66674 -1.15565,-1.00439 -0.0548,-0.0508 -0.1095,-0.10163 -0.16424,-0.15244 -0.51861,-0.48068 -1.19839,0.25273 -0.67978,0.73341 v 0 c 0.0609,0.0564 0.12183,0.11278 0.18274,0.16917 0.38926,0.34284 0.76965,0.69601 1.17463,1.0207 0.43425,0.36358 0.87313,0.72184 1.30917,1.08325 0.4847,0.36375 0.97634,0.71975 1.4893,1.04283 0.43394,0.25828 0.88353,0.49553 1.38035,0.60787 0.69027,0.1534 0.9072,-0.82279 0.21693,-0.97618 z" />
    <path
       style="opacity:1;fill:#ff0a0a;fill-opacity:1;stroke:none;stroke-width:1;stroke-opacity:1"
       id="path124"
       d="m 120.4143,101.45959 c 1.14043,-1.26594 2.33842,-2.47917 3.49082,-3.735959 1.27347,-1.418384 2.73447,-2.644426 4.10333,-3.96585 0.71975,-0.694275 1.49008,-1.329772 2.2586,-1.968149 0.54393,-0.451821 -0.095,-1.221052 -0.63897,-0.769231 v 0 c -0.78766,0.654281 -1.57657,1.30641 -2.31421,2.01797 -1.38323,1.335714 -2.86014,2.574546 -4.1458,4.009427 -0.28703,0.313025 -1.11731,1.220784 -1.41526,1.536959 -0.70665,0.749877 -1.46899,1.448813 -2.11938,2.250143 -0.44172,0.55215 0.33915,1.17685 0.78087,0.62469 z" />
    <path
       style="opacity:1;fill:#ff0a0a;fill-opacity:1;stroke:none;stroke-width:1;stroke-opacity:1"
       id="path125"
       d="m 127.66969,111.47721 c 1.13173,-1.35833 2.42082,-2.57327 3.67336,-3.81747 1.09837,-1.08328 2.03668,-2.31098 3.0948,-3.43126 0.25279,-0.26763 0.51461,-0.52658 0.77191,-0.78988 0.25131,-0.2692 0.50262,-0.53841 0.75392,-0.80762 0.23654,-0.2653 0.47201,-0.53156 0.70961,-0.7959 0.53941,-0.6001 0.81938,-0.91935 1.40188,-1.48242 0.73245,-0.708017 1.51332,-1.367538 2.27199,-2.04698 0.98298,-0.88087 1.96522,-1.762363 2.79584,-2.79128 0.59584,-0.796997 1.27484,-1.525564 1.92066,-2.281008 0.33458,-0.338526 0.16962,-0.171159 0.49489,-0.502065 0.49568,-0.50428 -0.21748,-1.20528 -0.71316,-0.701 v 0 c -0.34182,0.347741 -0.16108,0.163324 -0.542,0.553455 -0.65179,0.76322 -1.33788,1.49864 -1.93943,2.303648 -0.79332,0.989155 -1.74533,1.825204 -2.68395,2.673326 -0.77429,0.693465 -1.57047,1.367023 -2.31741,2.090298 -0.59529,0.576436 -0.88673,0.907686 -1.4358,1.518636 -0.23249,0.25868 -0.46279,0.51933 -0.69419,0.77899 -0.9971,1.06862 -0.48626,0.53308 -1.53344,1.60575 -1.04646,1.10888 -1.97623,2.32209 -3.06087,3.39585 -1.26906,1.26064 -2.57431,2.49235 -3.72119,3.86843 -0.46563,0.53215 0.28695,1.19065 0.75258,0.6585 z" />
    <path
       style="opacity:1;fill:#ff0a0a;fill-opacity:1;stroke:none;stroke-width:1;stroke-opacity:1"
       id="path126"
       d="m 136.75713,123.17007 c 0.51737,-0.6491 0.9835,-1.33923 1.52034,-1.97303 0.40141,-0.47391 0.83057,-0.92359 1.24627,-1.38502 1.20203,-1.31277 2.3548,-2.66353 3.41668,-4.09182 0.63548,-0.81108 1.26059,-1.63151 1.94902,-2.39877 0.56469,-0.60694 1.10301,-1.24256 1.6945,-1.82407 0.21694,-0.19582 0.4186,-0.40679 0.63158,-0.60676 0.51494,-0.4846 -0.17039,-1.21284 -0.68533,-0.72823 v 0 c -0.21833,0.20589 -0.42651,0.42141 -0.64871,0.62327 -0.60408,0.59823 -1.16019,1.24487 -1.7371,1.8688 -0.70697,0.79137 -1.35439,1.63249 -2.00652,2.46918 -1.04297,1.40326 -2.17631,2.72937 -3.3571,4.01907 -0.065,0.0722 -1.2004,1.33085 -1.28698,1.4332 -0.53844,0.63646 -1.00725,1.32831 -1.52601,1.98024 -0.43412,0.55816 0.35523,1.1721 0.78936,0.61394 z" />
    <path
       style="opacity:1;fill:#ff0a0a;fill-opacity:1;stroke:none;stroke-width:1;stroke-opacity:1"
       id="path127"
       d="m 162.17008,95.088106 c 0.51013,-0.692254 0.98229,-1.412404 1.51375,-2.088719 0.32851,-0.435994 0.69118,-0.853117 1.10969,-1.205315 0.29747,-0.279019 0.63821,-0.502187 0.94526,-0.770072 0.22937,-0.241141 0.12095,-0.12046 0.32626,-0.361149 0.45763,-0.539046 -0.3047,-1.186238 -0.76233,-0.647189 v 0 c -0.15237,0.180552 -0.0778,0.09536 -0.22297,0.256225 -0.30237,0.266364 -0.64394,0.48215 -0.93545,0.76159 -0.46478,0.400825 -0.88161,0.856435 -1.24764,1.34919 -0.53394,0.683347 -1.01491,1.405522 -1.52657,2.105438 -0.42427,0.565687 0.37573,1.165685 0.8,0.600001 z" />
    <path
       style="opacity:1;fill:#ff0a0a;fill-opacity:1;stroke:none;stroke-width:1;stroke-opacity:1"
       id="path128"
       d="m 151.53925,132.08661 c 1.3686,-1.34113 2.59399,-2.81697 3.85693,-4.25545 1.29295,-1.59443 2.65594,-3.12749 3.99765,-4.67995 0.607,-0.68608 0.3134,-0.35814 0.87991,-0.98459 0.47425,-0.52448 -0.26748,-1.19518 -0.74174,-0.67069 v 0 c -0.57635,0.63746 -0.27777,0.30389 -0.89486,1.0015 -1.33953,1.55082 -2.70169,3.08117 -3.99244,4.67397 -1.24864,1.42223 -2.45966,2.8819 -3.81256,4.2081 -0.5,0.5 0.20711,1.20711 0.70711,0.70711 z" />
    <path
       style="opacity:1;fill:#ff0a0a;fill-opacity:1;stroke:none;stroke-width:1;stroke-opacity:1"
       id="path129"
       d="m 175.71068,101.90433 c 0.75634,-1.31008 1.71587,-2.492054 2.63629,-3.689006 0.85724,-1.054007 1.709,-2.127795 2.69619,-3.065872 0.30695,-0.291674 0.92231,-0.809286 1.25684,-1.094375 0.66174,-0.581557 1.30872,-1.186333 1.91795,-1.823347 0.22029,-0.245864 0.11476,-0.11811 0.31631,-0.383503 0.42334,-0.566378 -0.37764,-1.165071 -0.80098,-0.598694 v 0 c -0.13862,0.190082 -0.0601,0.09144 -0.23966,0.292746 -0.58184,0.614847 -1.20978,1.190379 -1.84235,1.75178 -0.37959,0.32367 -0.97054,0.819875 -1.31992,1.153027 -1.01531,0.968148 -1.89519,2.071717 -2.77713,3.158683 -0.95917,1.247513 -1.9595,2.479831 -2.73797,3.851341 -0.31622,0.63246 0.5782,1.07967 0.89443,0.44722 z" />
    <path
       style="opacity:1;fill:#ff0a0a;fill-opacity:1;stroke:none;stroke-width:1;stroke-opacity:1"
       id="path130"
       d="m 170.91894,132.60101 c 1.0189,-1.07149 1.96022,-2.20862 2.81089,-3.41729 0.79171,-1.09851 1.46624,-2.27227 2.18454,-3.41751 0.26898,-0.4069 0.55896,-0.79906 0.83339,-1.20212 0.39762,-0.58473 -0.4293,-1.14704 -0.82692,-0.56232 v 0 c -0.28097,0.41375 -0.57995,0.81494 -0.85393,1.23358 -0.70769,1.13108 -1.37487,2.28845 -2.15519,3.3733 -0.82621,1.17696 -1.74537,2.28054 -2.73608,3.3234 -0.47303,0.52559 0.27027,1.19455 0.7433,0.66896 z" />
    <path
       style="opacity:1;fill:#ff0a0a;fill-opacity:1;stroke:none;stroke-width:1;stroke-opacity:1"
       id="path131"
       d="m 190.46587,107.5568 c 0.067,-0.12412 0.12796,-0.25173 0.20111,-0.37235 0.48572,-0.80093 1.06205,-1.54511 1.57493,-2.32864 0.48548,-0.74167 0.91108,-1.44085 1.37974,-2.19762 1.52382,-2.44222 3.27046,-4.731219 5.03463,-7.00182 1.01775,-1.278692 1.90075,-2.652961 2.81768,-4.002789 0.39723,-0.584988 -0.43007,-1.146752 -0.82729,-0.561763 v 0 c -0.90449,1.332505 -1.77597,2.688775 -2.78006,3.951017 -1.78583,2.298557 -3.55298,4.6164 -5.09515,7.088885 -0.4561,0.73659 -0.88624,1.44292 -1.35941,2.16613 -0.5314,0.81219 -1.13279,1.58214 -1.62817,2.41742 -0.0903,0.15219 -0.16433,0.31342 -0.24649,0.47014 -0.26261,0.65653 0.66586,1.02792 0.92848,0.37139 z" />
    <path
       style="opacity:1;fill:#ff0a0a;fill-opacity:1;stroke:none;stroke-width:1;stroke-opacity:1"
       id="path132"
       d="m 193.70358,119.69797 c 1.16271,-1.57632 2.36973,-3.11883 3.60586,-4.63802 1.04467,-1.26408 1.9332,-2.6451 2.89991,-3.96729 0.37628,-0.51465 0.88591,-1.16655 1.27888,-1.67439 0.19669,-0.25138 0.39678,-0.50016 0.59009,-0.75415 0.57186,-0.75138 1.11986,-1.51704 1.73048,-2.23857 0.21002,-0.24817 0.95012,-1.07057 1.17737,-1.32411 0.47116,-0.51176 0.90635,-1.05346 1.33289,-1.60223 0.43368,-0.5585 -0.35616,-1.17181 -0.78984,-0.61332 v 0 c -0.4116,0.53063 -0.83241,1.05372 -1.28772,1.54811 -0.2604,0.29055 -0.97103,1.07974 -1.20916,1.36138 -0.61414,0.72637 -1.1661,1.49641 -1.74158,2.25251 -0.19442,0.25543 -0.39562,0.50562 -0.59343,0.75843 -0.41274,0.53347 -0.90758,1.16611 -1.30346,1.70755 -0.9538,1.30451 -1.83004,2.66733 -2.86013,3.91498 -1.25593,1.54383 -2.4832,3.11082 -3.66221,4.71443 -0.39223,0.58834 0.43982,1.14304 0.83205,0.55469 z" />
    <path
       style="opacity:1;fill:#2bff0a;fill-opacity:1;stroke:none;stroke-width:1;stroke-opacity:1"
       id="path133"
       d="m 125.48078,65.53396 c 1.01958,-0.891329 2.06756,-1.74625 3.05382,-2.67493 1.44561,-1.427326 2.99414,-2.742353 4.51447,-4.08778 0.23769,-0.22133 0.47913,-0.438698 0.71308,-0.663986 0.85418,-0.822587 0.53355,-0.564938 1.39408,-1.368951 0.71919,-0.671954 1.4693,-1.311817 2.19744,-1.974149 0.81936,-0.767591 1.71151,-1.452605 2.52998,-2.220666 0.41343,-0.334076 0.80561,-0.705234 1.24525,-1.005417 0.43084,-0.365895 0.89981,-0.68086 1.36819,-0.996595 0.72677,-0.602742 1.40823,-1.257226 2.12715,-1.869967 0.57729,-0.521793 1.17487,-1.010465 1.80347,-1.468345 0.88872,-0.645435 1.69325,-1.392602 2.55725,-2.070227 0.96336,-0.783656 1.99615,-1.474496 2.99778,-2.207138 0.68634,-0.4508 1.31957,-0.971053 1.96427,-1.477036 0.0779,-0.06077 0.15581,-0.121545 0.23371,-0.182317 0.55752,-0.434938 -0.0576,-1.223391 -0.6151,-0.788453 v 0 c -0.0788,0.06148 -0.1576,0.122952 -0.2364,0.184428 -0.63522,0.499544 -1.26,1.011846 -1.93685,1.456248 -1.01072,0.739291 -2.05279,1.436526 -3.02472,2.227543 -0.85442,0.670724 -1.65119,1.408295 -2.52874,2.048671 -0.64913,0.472885 -1.26702,0.977186 -1.86338,1.515589 -0.69055,0.588693 -1.35053,1.210908 -2.03814,1.802307 -0.47113,0.318757 -0.94619,0.634196 -1.37905,1.004036 -0.47587,0.33464 -0.91288,0.725966 -1.35938,1.097838 -0.81367,0.765284 -1.70468,1.443784 -2.51822,2.209792 -0.73579,0.669425 -1.49349,1.316297 -2.2202,1.995514 -0.9057,0.846521 -0.50149,0.50891 -1.37999,1.355561 -0.22773,0.219485 -0.4628,0.431237 -0.6942,0.646856 -1.52812,1.352368 -3.08441,2.674358 -4.53758,4.108881 -0.95835,0.903904 -1.97981,1.732172 -2.96799,2.602693 -0.56569,0.424262 0.0343,1.224264 0.6,0.8 z" />
    <path
       style="opacity:1;fill:#2bff0a;fill-opacity:1;stroke:none;stroke-width:1;stroke-opacity:1"
       id="path134"
       d="m 122.1108,81.407552 c 1.39245,-0.831017 2.56546,-1.966444 3.77946,-3.028516 1.54083,-1.245354 2.97121,-2.614126 4.44052,-3.940482 1.11361,-0.978286 2.26733,-1.909273 3.43208,-2.825475 1.16141,-0.899067 2.43405,-1.636395 3.63169,-2.484165 0.61006,-0.403529 1.10121,-0.949478 1.66671,-1.407133 0.40574,-0.263139 0.76622,-0.587931 1.16627,-0.858531 0.58388,-0.398857 0.0198,-1.224584 -0.56407,-0.82573 v 0 c -0.42095,0.289713 -0.80801,0.624708 -1.23339,0.908629 -0.54618,0.446487 -1.02758,0.968664 -1.61348,1.366703 -1.21084,0.858036 -2.49993,1.6012 -3.67199,2.514248 -1.18252,0.93018 -2.35368,1.8756 -3.48393,2.869195 -1.46533,1.323038 -2.8919,2.688219 -4.42886,3.93012 -1.1504,1.006502 -2.26097,2.081073 -3.56822,2.88671 -0.63246,0.316228 -0.18524,1.210654 0.44721,0.894427 z" />
    <path
       style="opacity:1;fill:#2bff0a;fill-opacity:1;stroke:none;stroke-width:1;stroke-opacity:1"
       id="path135"
       d="m 144.38362,81.113677 c 0.97484,-0.917171 1.99225,-1.786718 2.99587,-2.671845 0.97019,-0.892603 2.00062,-1.715373 2.99582,-2.579245 0.64135,-0.54623 1.31002,-1.066954 2.03271,-1.501487 0.0951,-0.0568 0.19027,-0.113602 0.28541,-0.170402 0.60712,-0.362495 0.0945,-1.221095 -0.51264,-0.858602 v 0 c -0.0965,0.05763 -0.19305,0.115265 -0.28957,0.172897 -0.77026,0.466585 -1.48792,1.016963 -2.17148,1.602459 -0.99705,0.865712 -2.02978,1.68981 -3.0017,2.584395 -1.00457,0.885997 -2.02304,1.756325 -2.99878,2.674419 -0.5285,0.469778 0.13587,1.217186 0.66436,0.747411 z" />
    <path
       style="opacity:1;fill:#2bff0a;fill-opacity:1;stroke:none;stroke-width:1;stroke-opacity:1"
       id="path136"
       d="m 166.96744,46.595577 c 0.8653,-0.825637 1.63159,-1.745832 2.47595,-2.593409 0.71686,-0.674997 1.48071,-1.284097 2.3113,-1.811094 0.70432,-0.369527 1.4294,-0.691499 2.13354,-1.061751 0.40883,-0.221552 0.81885,-0.440238 1.19943,-0.708256 0.57505,-0.41149 -0.007,-1.224724 -0.58193,-0.813234 v 0 c -0.3385,0.248243 -0.71895,0.429565 -1.08293,0.636405 -0.72814,0.382932 -1.48102,0.710449 -2.20426,1.10272 -0.89246,0.567444 -1.7149,1.222187 -2.48386,1.949712 -0.84324,0.84767 -1.61067,1.765689 -2.47435,2.5918 -0.5,0.499999 0.2071,1.207106 0.70711,0.707107 z" />
    <path
       style="opacity:1;fill:#2bff0a;fill-opacity:1;stroke:none;stroke-width:1;stroke-opacity:1"
       id="path137"
       d="m 174.74228,56.978012 c 1.45355,-0.987025 2.97819,-1.865773 4.44295,-2.837862 1.40805,-0.944552 2.87508,-1.81415 4.17999,-2.901778 0.13387,-0.123487 0.27166,-0.242859 0.40162,-0.370462 0.30396,-0.298463 0.42564,-0.471096 0.74095,-0.753904 0.35949,-0.322424 0.7578,-0.610481 1.14759,-0.894651 0.57101,-0.417066 -0.0188,-1.2246 -0.58982,-0.807535 v 0 c -0.42994,0.314558 -0.86475,0.634542 -1.26112,0.991343 -0.38257,0.344377 -0.36645,0.384943 -0.71646,0.730475 -0.1178,0.116301 -0.24282,0.225058 -0.36423,0.337587 -1.2729,1.068213 -2.71887,1.905884 -4.09163,2.835815 -1.05808,0.702747 -0.79138,0.538462 -1.86703,1.201963 -0.76406,0.471304 -1.54545,0.923962 -2.29044,1.425651 -0.13189,0.08881 -0.25544,0.1894 -0.38316,0.284102 -0.53687,0.460179 0.11392,1.219435 0.65079,0.759256 z" />
    <path
       style="opacity:1;fill:#2bff0a;fill-opacity:1;stroke:none;stroke-width:1;stroke-opacity:1"
       id="path138"
       d="m 168.19093,81.470446 c 0.74088,-0.857057 1.5884,-1.609886 2.41884,-2.377337 0.57784,-0.536821 1.04986,-1.172062 1.60999,-1.725816 0.21452,-0.212077 0.52774,-0.489439 0.75096,-0.690525 0.65511,-0.574646 1.33545,-1.119151 2.00242,-1.679459 0.54114,-0.455152 -0.10254,-1.220443 -0.64368,-0.765291 v 0 c -0.67497,0.568457 -1.3653,1.118875 -2.02821,1.701919 -0.40627,0.36631 -0.80775,0.731342 -1.17936,1.13357 -0.2533,0.274174 -0.48854,0.564766 -0.74375,0.83716 -0.14523,0.154996 -0.29805,0.302689 -0.44708,0.454033 -0.83999,0.776282 -1.69782,1.53775 -2.44723,2.404639 -0.5,0.499999 0.20711,1.207106 0.7071,0.707107 z" />
    <path
       style="opacity:1;fill:#2bff0a;fill-opacity:1;stroke:none;stroke-width:1;stroke-opacity:1"
       id="path139"
       d="m 187.82078,68.291082 c 0.85154,-0.449643 1.64873,-0.992992 2.43022,-1.553287 0.77898,-0.594817 1.49312,-1.265742 2.25961,-1.876784 0.60563,-0.517118 1.24655,-0.99377 1.82628,-1.540992 1.30304,-1.229974 -0.37863,0.301472 0.89517,-0.848886 0.54856,-0.457468 1.07937,-0.93272 1.59459,-1.427216 0.51002,-0.489781 -0.18264,-1.211051 -0.69265,-0.721267 v 0 c -0.50782,0.487973 -1.03237,0.95523 -1.57287,1.406961 -0.87955,0.797216 -1.72305,1.63281 -2.67393,2.3495 -0.75318,0.600583 -1.45699,1.257255 -2.21892,1.846017 -0.73856,0.529658 -1.491,1.044456 -2.29472,1.471527 -0.63245,0.316228 -0.18524,1.210654 0.44722,0.894427 z" />
    <path
       style="opacity:1;fill:#2bff0a;fill-opacity:1;stroke:none;stroke-width:1;stroke-opacity:1"
       id="path140"
       d="m 194.33113,80.936972 c 0.8028,-0.92238 1.72026,-1.731542 2.59913,-2.578478 0.87618,-0.979742 1.83464,-1.878476 2.68839,-2.877966 0.39572,-0.409276 0.71487,-0.882885 1.07949,-1.317852 0.31351,-0.373989 0.65814,-0.724366 0.97998,-1.091446 0.45227,-0.55884 0.9927,-1.034981 1.53436,-1.504159 0.15364,-0.107069 0.29791,-0.225441 0.45206,-0.331706 0.58023,-0.404148 0.009,-1.224714 -0.57155,-0.820565 v 0 c -0.1823,0.127952 -0.35694,0.264671 -0.53606,0.397126 -0.57495,0.50011 -1.14937,1.006467 -1.6309,1.600245 -0.33367,0.380963 -0.68913,0.745136 -1.0145,1.133062 -0.35603,0.424471 -0.66614,0.887857 -1.05367,1.286296 -0.83132,0.975881 -1.77027,1.848535 -2.62157,2.80697 -0.88306,0.851342 -1.80581,1.664076 -2.61226,2.591366 -0.5,0.499999 0.2071,1.207106 0.7071,0.707107 z" />
  </g>
</svg>
